<svg xmlns="http://www.w3.org/2000/svg" width="180.479" height="283.705" viewBox="0 0 180.479 283.705">
  <g id="Layer_2" data-name="Layer 2">
    <g id="Layer_21" data-name="Layer 21">
      <g>
        <path d="M141.271,283.705H37.068a13.966,13.966,0,0,1-13.956-13.4L15.139,72.568A13.967,13.967,0,0,1,28.533,58.051c.187-.008.374-.011.561-.011h120.15a13.967,13.967,0,0,1,13.967,13.967c0,.187,0,.374-.011.561L155.227,270.3A13.967,13.967,0,0,1,141.271,283.705Z" fill="#cc2c0d"/>
        <g>
          <path d="M61.521,123.121a10.609,10.609,0,0,1-2.593,3.908,12.69,12.69,0,0,1-4.5,2.71,19.063,19.063,0,0,1-6.618,1.015H37.016V142.32a3.756,3.756,0,0,1-1.16,2.8,3.915,3.915,0,0,1-2.834,1.146,3.87,3.87,0,0,1-3.933-3.807c0-.043,0-.087,0-.13V110.005a3.865,3.865,0,0,1,3.8-3.931H47.809a18.63,18.63,0,0,1,6.618,1.043,13.1,13.1,0,0,1,4.5,2.742,10.512,10.512,0,0,1,2.592,3.965,13.3,13.3,0,0,1,.837,4.65A12.985,12.985,0,0,1,61.521,123.121Zm-7.45-6.469a4.4,4.4,0,0,0-.954-1.639,5.212,5.212,0,0,0-1.7-1.192,5.909,5.909,0,0,0-2.475-.478H37.019v10.076H48.943a6.183,6.183,0,0,0,2.475-.447,5.05,5.05,0,0,0,1.7-1.146,4.1,4.1,0,0,0,.954-1.581,5.55,5.55,0,0,0,.287-1.788,5.886,5.886,0,0,0-.289-1.8Z" fill="#fff"/>
          <path d="M104.957,133.974a21.045,21.045,0,0,1-4.3,6.558,19.753,19.753,0,0,1-6.437,4.412,20.343,20.343,0,0,1-22.508-4.412,20.934,20.934,0,0,1,0-29.192,20.422,20.422,0,0,1,28.945,0A21.121,21.121,0,0,1,104.957,133.974Zm-7.246-13.2a12.876,12.876,0,0,0-2.5-4.206,11.672,11.672,0,0,0-3.9-2.83,12.97,12.97,0,0,0-10.193,0,11.988,11.988,0,0,0-3.937,2.83,12.622,12.622,0,0,0-2.533,4.206,15.285,15.285,0,0,0,0,10.314,12.949,12.949,0,0,0,2.533,4.232,11.762,11.762,0,0,0,3.937,2.865,12.979,12.979,0,0,0,10.193,0,11.458,11.458,0,0,0,3.9-2.865,13.21,13.21,0,0,0,2.5-4.232A15.321,15.321,0,0,0,97.711,120.769Z" fill="#fff"/>
          <path d="M147.316,123.121a10.589,10.589,0,0,1-2.578,3.908,12.69,12.69,0,0,1-4.5,2.71,19.086,19.086,0,0,1-6.618,1.015H122.826V142.32a3.749,3.749,0,0,1-1.163,2.8,3.977,3.977,0,0,1-6.767-2.658c0-.044,0-.089,0-.133V110.005a3.863,3.863,0,0,1,3.8-3.93H133.6a18.671,18.671,0,0,1,6.618,1.043,13.084,13.084,0,0,1,4.5,2.742,10.512,10.512,0,0,1,2.579,3.965,13.35,13.35,0,0,1,.836,4.65A13.023,13.023,0,0,1,147.316,123.121Zm-7.449-6.469a4.48,4.48,0,0,0-.954-1.639,5.263,5.263,0,0,0-1.7-1.192,5.925,5.925,0,0,0-2.475-.478H122.815v10.076h11.924a6.2,6.2,0,0,0,2.475-.447,5.1,5.1,0,0,0,1.7-1.146,4.178,4.178,0,0,0,.954-1.581,5.661,5.661,0,0,0,.287-1.788,5.948,5.948,0,0,0-.29-1.8Z" fill="#fff"/>
        </g>
        <path d="M49.132,46.2A15.471,15.471,0,0,0,22.846,35.145,14.551,14.551,0,1,0,10.555,61.094,17.287,17.287,0,1,0,41.44,59.552,15.448,15.448,0,0,0,49.132,46.2Z" fill="#fce5c0"/>
        <path d="M69.514,68.027a15.471,15.471,0,0,0,1.461-28.475A14.552,14.552,0,1,0,42.4,36.8,17.29,17.29,0,1,0,54.338,65.331,15.45,15.45,0,0,0,69.514,68.027Z" fill="#efcd9c"/>
        <path d="M88.326,85.071a15.47,15.47,0,0,0,23.647-15.927,14.551,14.551,0,1,0-14.961-24.5A17.29,17.29,0,1,0,81.369,71.316,15.45,15.45,0,0,0,88.326,85.071Z" fill="#fce5c0"/>
        <path d="M121.081,68.692a15.471,15.471,0,0,0,23.651-15.927,14.552,14.552,0,1,0-14.961-24.5,17.29,17.29,0,1,0-15.643,26.676A15.451,15.451,0,0,0,121.081,68.692Z" fill="#f9ce91"/>
        <path d="M118.924,42.944a15.471,15.471,0,0,0-5.217-28.034A14.551,14.551,0,1,0,85.274,18.9a17.29,17.29,0,1,0,18.265,24.955A15.447,15.447,0,0,0,118.924,42.944Z" fill="#efc88e"/>
        <path d="M173.522,79.341a15.47,15.47,0,0,0-5.217-28.031A14.554,14.554,0,1,0,139.87,55.3a17.29,17.29,0,1,0,18.264,24.954A15.453,15.453,0,0,0,173.522,79.341Z" fill="#fce5c0"/>
      </g>
    </g>
  </g>
</svg>
