<svg xmlns="http://www.w3.org/2000/svg" width="285.84" height="286.112" viewBox="0 0 285.84 286.112">
  <g id="Layer_2" data-name="Layer 2">
    <g id="Layer_21" data-name="Layer 21">
      <g>
        <g>
          <g>
            <g>
              <circle cx="142.569" cy="143.105" r="142.306" transform="translate(-59.433 142.726) rotate(-45)" fill="#f7a90b"/>
              <path d="M142.92,286.112a144.787,144.787,0,0,1-27.34-2.8A142.695,142.695,0,0,1,2.717,115.765C17.789,38.3,92.8-12.17,170.259,2.551a142.906,142.906,0,0,1,52.577,258.675A141.537,141.537,0,0,1,142.92,286.112ZM142.569,1.5A141.944,141.944,0,0,0,3.418,116.466a138.954,138.954,0,0,0,21.731,106.2c21.031,31.546,53.277,52.576,90.431,59.937a138.958,138.958,0,0,0,106.2-21.732c31.546-21.03,52.576-53.277,59.937-90.431a138.959,138.959,0,0,0-21.732-106.2C238.959,32.7,206.712,11.664,169.558,4.3A119.75,119.75,0,0,0,142.569,1.5Z" fill="#af7000"/>
            </g>
            <g>
              <circle cx="142.569" cy="143.105" r="110.059" transform="translate(-59.433 142.726) rotate(-45)" fill="#f7a90b"/>
              <path d="M142.569,253.865a106.99,106.99,0,0,1-21.03-2.1C61.6,240.2,22.345,182.011,33.912,122.074S103.663,22.88,163.6,34.447a110.312,110.312,0,0,1,87.627,129.688C241.062,217.062,194.445,253.865,142.569,253.865Zm0-220.469a109.647,109.647,0,0,0-20.68,217.314c59.236,11.567,117.07-27.339,128.637-86.925A109.722,109.722,0,0,0,163.6,35.148,141.938,141.938,0,0,0,142.569,33.4Z" fill="#af7000"/>
            </g>
            <g>
              <circle cx="142.569" cy="143.105" r="88.328" fill="#f7a90b"/>
              <path d="M142.569,232.134a91.344,91.344,0,0,1-16.824-1.753,88.952,88.952,0,0,1-70.452-104.1c9.464-48.019,56.081-79.916,104.451-70.452a88.953,88.953,0,0,1,70.452,104.1A89.472,89.472,0,0,1,142.569,232.134Zm0-176.656A88.834,88.834,0,0,0,93.5,70.55a87.689,87.689,0,0,0-37.154,56.081c-4.556,23.133.351,46.267,13.32,65.9a87.881,87.881,0,0,0,159.13-32.246h0a88.279,88.279,0,0,0-69.4-103.05A68.66,68.66,0,0,0,142.569,55.478Z" fill="#af7000"/>
            </g>
            <g>
              <circle cx="142.569" cy="143.105" r="76.06" fill="#f7a90b"/>
              <path d="M142.92,219.866a69.878,69.878,0,0,1-14.722-1.4,76.8,76.8,0,1,1,90.432-60.989h0a77.248,77.248,0,0,1-32.247,49.071C172.713,215.309,157.992,219.866,142.92,219.866Zm-.351-152.121a75.35,75.35,0,0,0-42.061,12.969,74.435,74.435,0,0,0-31.9,48.37,75.582,75.582,0,0,0,11.567,56.783,74.435,74.435,0,0,0,48.37,31.9A75.583,75.583,0,0,0,185.331,206.2a74.431,74.431,0,0,0,31.9-48.37,75.574,75.574,0,0,0-11.567-56.782,76.073,76.073,0,0,0-63.091-33.3Z" fill="#af7000"/>
            </g>
            <circle cx="142.569" cy="143.105" r="63.091"/>
            <circle cx="142.569" cy="143.105" r="50.824" fill="#f7a90b"/>
            <circle cx="142.569" cy="143.105" r="4.206"/>
            <path d="M175.517,132.239l-59.236-11.567a2.665,2.665,0,0,1-2.1-2.8l1.052-5.959a2.665,2.665,0,0,1,2.8-2.1l59.236,11.567a2.666,2.666,0,0,1,2.1,2.8l-1.052,5.959A2.665,2.665,0,0,1,175.517,132.239Z" fill="#a86b00"/>
            <path d="M175.517,137.5l-61.339-11.917a1.225,1.225,0,0,1-1.051-1.752v-.7a1.226,1.226,0,0,1,1.752-1.052l61.339,11.917a1.227,1.227,0,0,1,1.052,1.753v.7C176.919,137.146,176.218,137.847,175.517,137.5Z" fill="#a86b00"/>
          </g>
          <g>
            <polygon points="256.484 58.983 0.964 145.909 1.665 156.774 263.144 68.797 256.484 58.983" fill="#fff" opacity="0.64" style="isolation: isolate"/>
            <polygon points="266.299 74.055 2.366 164.135 3.418 170.444 269.453 80.013 266.299 74.055" fill="#fff" opacity="0.64" style="isolation: isolate"/>
          </g>
        </g>
        <path d="M128.817,140.918a15.512,15.512,0,0,1-.708,3.6,16.051,16.051,0,0,1-1.431,2.809,9.43,9.43,0,0,1-2.963,2.835.927.927,0,0,0-.4.694c-.017.665.042,1.438.024,2.1.046.294.123.4.4.45a11.078,11.078,0,0,1,3.288,1.417,6.1,6.1,0,0,1,2.768,4.477,7.658,7.658,0,0,1-.553,3.817,6.768,6.768,0,0,1-3.073,3.484,18.681,18.681,0,0,1-1.95.813c-.2.061-.31.138-.495.106-.2.062-.31.138-.249.34-.018.664.057,1.345.04,2.01a4.756,4.756,0,0,1,0,1.144c-.033.757-.051,1.422-.084,2.179a4.92,4.92,0,0,1-1.5,3.18,4.33,4.33,0,0,1-2.384,1.121,5.821,5.821,0,0,1-2.829-.2,6.88,6.88,0,0,1-2.191-1.136,4.929,4.929,0,0,1-1.109-1.333,4.163,4.163,0,0,1-.376-3.4,3.75,3.75,0,0,1,1.909-2.251,3.145,3.145,0,0,1,3.385.289,3.289,3.289,0,0,1,1.287,3.653,3.806,3.806,0,0,1-.98,1.836.713.713,0,0,0-.249.34c-.124.169-.047.278.138.309a1.376,1.376,0,0,0,1.052-.012,3.03,3.03,0,0,0,2.266-2.667c.049-.85-.011-1.623.039-2.473.033-.758-.026-1.531.023-2.381l.031-.185a.343.343,0,0,0-.307-.434l-.557-.095a13.464,13.464,0,0,1-2.641-.735,11.857,11.857,0,0,1-3.641-2.146,4.638,4.638,0,0,1-1.571-1.984,9.08,9.08,0,0,1-.991-4.27,8.877,8.877,0,0,1,1.3-4.262,14.947,14.947,0,0,1,2.2-2.869,12.915,12.915,0,0,1,2.775-2.294c.852-.523,1.72-1.139,2.572-1.661.217-.154.418-.215.635-.369a.488.488,0,0,0,.248-.34c-.014-.479.049-.85.035-1.329.02-1.237.116-2.365.229-3.586a10.867,10.867,0,0,1,1.172-4.093,4.773,4.773,0,0,1,2.481-2.249,1.581,1.581,0,0,1,1.685.191,2.54,2.54,0,0,1,.631.775,7.56,7.56,0,0,1,.934,2.925A6.091,6.091,0,0,0,128.817,140.918Zm-7.026,11.587h0a1.609,1.609,0,0,1,.017-.664c.048-.278-.122-.4-.416-.357-.093-.016-.093-.016-.2.061a10.623,10.623,0,0,0-1.363.722,10.224,10.224,0,0,0-2.526,1.955,8.979,8.979,0,0,0-2.518,4.151,3.816,3.816,0,0,0-.174,1.02,4.322,4.322,0,0,0,.733,2.986,6.917,6.917,0,0,0,3.176,2.638,9.522,9.522,0,0,0,2.749.659c.464.078.681-.075.667-.555l.006-1.716q0-1.716.011-3.432c-.028-.958.037-1.9.009-2.86.016-.093-.061-.2-.138-.31l-.278-.047a2.742,2.742,0,0,0-.974.121,3.315,3.315,0,0,0-2.3,2.852,3.374,3.374,0,0,0,.365,1.779,3.635,3.635,0,0,0,1.247,1.643,3.331,3.331,0,0,0,.772.513c.169.124.307.434.183.6-.016.093-.108.077-.124.17a3.224,3.224,0,0,1-.943-.065,3.776,3.776,0,0,1-1.712-1.15,4.65,4.65,0,0,1-1.166-2.678,5.5,5.5,0,0,1,.583-3.43,5.989,5.989,0,0,1,1.94-2.436,6.8,6.8,0,0,1,2.308-1.23.435.435,0,0,0,.357-.416A.479.479,0,0,1,121.791,152.505Zm5.644,8.877a2.353,2.353,0,0,0-.075-.68,3.962,3.962,0,0,0-1.12-2.384A6.529,6.529,0,0,0,124.08,157l-.464-.078c-.185-.032-.294.045-.233.246-.033.758.01,1.623-.023,2.381-.035,1.329.006,2.767.064,4.112l.042,1.438a.394.394,0,0,0,.509.373c.092.016.108-.077.2-.061a7.289,7.289,0,0,0,1.146-.568A4.473,4.473,0,0,0,127.435,161.382Zm-4.348-17.623h0c.014.48.012,1.052.026,1.531.03.387.292.527.694.4.093.016.109-.077.2-.061a4.91,4.91,0,0,0,1.177-.754,6.525,6.525,0,0,0,2.051-3.085,2.643,2.643,0,0,0-.194-2.227,1.027,1.027,0,0,0-1.049-.56,1.691,1.691,0,0,0-.929.415,4.806,4.806,0,0,0-1.258,1.789A6.315,6.315,0,0,0,123.087,143.759Z"/>
      </g>
    </g>
  </g>
</svg>
