<svg xmlns="http://www.w3.org/2000/svg" width="275.758" height="206.819" viewBox="0 0 275.758 206.819">
  <g id="Layer_2" data-name="Layer 2">
    <g id="Layer_1-2" data-name="Layer 1">
      <g id="Layer_2-2" data-name="Layer 2">
        <g id="Layer_21" data-name="Layer 21">
          <g>
            <path d="M21.536,0H254.222a21.536,21.536,0,0,1,21.536,21.536V185.283a21.536,21.536,0,0,1-21.536,21.536H21.536A21.536,21.536,0,0,1,0,185.283V21.536A21.536,21.536,0,0,1,21.536,0Z" fill="#fff"/>
            <path d="M20.915,0H91.776V206.819H20.915A20.915,20.915,0,0,1,0,185.9V20.915A20.915,20.915,0,0,1,20.915,0Z" fill="#009246"/>
            <path d="M183.983,0h70.86a20.915,20.915,0,0,1,20.915,20.915V185.9a20.915,20.915,0,0,1-20.915,20.915h-70.86Z" fill="#ce2b37"/>
          </g>
        </g>
      </g>
    </g>
  </g>
</svg>
