<?xml version="1.0" encoding="utf-8"?>
<!-- Generator: Adobe Illustrator 25.0.1, SVG Export Plug-In . SVG Version: 6.00 Build 0)  -->
<svg version="1.1" id="Layer_1" xmlns="http://www.w3.org/2000/svg" xmlns:xlink="http://www.w3.org/1999/xlink" x="0px" y="0px"
	 viewBox="0 0 258.7 194" style="enable-background:new 0 0 258.7 194;" xml:space="preserve">
<style type="text/css">
	.st0{fill:#FFFFFF;}
	.st1{fill:#00267F;}
	.st2{fill:#F31830;}
</style>
<g id="Layer_2_1_">
	<g id="Layer_15">
		<g>
			<path class="st0" d="M19.4,0h220c10.7,0,19.4,8.7,19.4,19.4v155.3c0,10.7-8.7,19.4-19.4,19.4h-220C8.7,194,0,185.3,0,174.6V19.4
				C0,8.7,8.7,0,19.4,0z"/>
			<path class="st1" d="M19.4,0h66.7v194H19.4C8.7,194,0,185.3,0,174.6V19.4C0,8.7,8.7,0,19.4,0z"/>
			<path class="st2" d="M172.6,0h66.7c10.7,0,19.4,8.7,19.4,19.4v155.3c0,10.7-8.7,19.4-19.4,19.4h-66.7V0z"/>
		</g>
	</g>
</g>
</svg>
