<?xml version="1.0" encoding="utf-8"?>
<!-- Generator: Adobe Illustrator 25.3.1, SVG Export Plug-In . SVG Version: 6.00 Build 0)  -->
<svg version="1.1" id="Layer_1" xmlns="http://www.w3.org/2000/svg" xmlns:xlink="http://www.w3.org/1999/xlink" x="0px" y="0px"
	 viewBox="0 0 285 213.8" style="enable-background:new 0 0 285 213.8;" xml:space="preserve">
<style type="text/css">
	.st0{fill:#34C100;}
	.st1{fill:#1C5604;}
	.st2{opacity:0.81;}
	.st3{fill:#FFFFFF;}
</style>
<g>
	<g>
		<g>
			<path class="st0" d="M113.7,215.8c-1.8,0-3.6-0.6-5.1-1.6l-53.7-38l-0.4-2.1l38-53.7c1.6-2.3,4.3-3.7,7.2-3.7
				c1.8,0,3.6,0.6,5.1,1.6l5.6,3.9c1.9,1.4,3.2,3.4,3.6,5.7s-0.1,4.6-1.5,6.5L97.9,155l106.6-18.2c20.3-3.5,34.8-23.4,31.5-43.5
				c-1.5-9.1-6.2-17.3-13.3-23.2c-4-3.3-4.8-9.1-1.8-13.3l5.2-7.4c1.8-2.6,4.9-4.2,8.1-4.2c2.2,0,4.4,0.8,6.2,2.2
				c12.7,10.2,21.2,24.7,23.9,40.7c6.2,36.2-18.3,70.7-54.5,76.9l-103.5,17.7l16.3,11.6c3.9,2.8,4.9,8.3,2.1,12.2l-3.9,5.6
				C119.2,214.4,116.5,215.8,113.7,215.8C113.7,215.8,113.7,215.8,113.7,215.8z"/>
			<path class="st1" d="M234.2,47.3c1.7,0,3.5,0.6,4.9,1.7c11.9,9.5,20.5,23.3,23.2,39.5v0c6,35.2-17.6,68.6-52.8,74.6l-108.3,18.5
				l20.3,14.4c3.1,2.2,3.8,6.4,1.6,9.4l-3.9,5.6c-1.3,1.9-3.4,2.9-5.5,2.9c-1.4,0-2.7-0.4-3.9-1.2l-53-37.5l-0.1-0.4l37.5-53
				c1.3-1.9,3.4-2.9,5.5-2.9c1.4,0,2.7,0.4,3.9,1.2l5.6,3.9c3.1,2.2,3.8,6.4,1.6,9.4l-17.3,24.5l111.4-19
				c21.4-3.7,36.6-24.3,33.2-45.8c-1.6-10-6.8-18.4-14-24.4c-3.2-2.6-3.8-7.3-1.4-10.6l5.2-7.4C229.4,48.5,231.8,47.3,234.2,47.3
				 M234.2,43.3c-3.8,0-7.5,1.9-9.7,5l-5.2,7.4c-3.6,5.1-2.6,12.1,2.2,16c6.7,5.5,11.2,13.3,12.6,21.9c3.1,19-10.6,37.9-29.9,41.2
				l-101.9,17.4l11.7-16.6c1.7-2.3,2.3-5.2,1.8-8c-0.5-2.8-2-5.3-4.4-7l-5.6-3.9c-1.8-1.3-4-2-6.2-2c-3.5,0-6.8,1.7-8.8,4.5
				l-37.5,53l-1,1.4l0.3,1.6l0.1,0.4l0.3,1.6l1.4,1l53,37.5c1.8,1.3,4,2,6.2,2c3.5,0,6.8-1.7,8.8-4.5l3.9-5.6
				c3.4-4.8,2.3-11.6-2.6-15l-12.4-8.8l98.8-16.8c18.1-3.1,33.8-13,44.4-28c10.6-15,14.7-33.1,11.7-51.2
				c-2.8-16.5-11.6-31.4-24.7-41.9C239.6,44.3,236.9,43.3,234.2,43.3L234.2,43.3z"/>
		</g>
		<g>
			<path class="st0" d="M48.7,169.6c-2.3,0-4.5-0.8-6.2-2.2c-12.6-10.2-21.1-24.6-23.8-40.6c-6.2-36.2,18.3-70.7,54.5-76.9
				l103.5-17.7l-16.3-11.6c-1.9-1.4-3.2-3.4-3.6-5.7c-0.4-2.3,0.1-4.6,1.5-6.5l3.9-5.6c1.6-2.3,4.3-3.7,7.2-3.7
				c1.8,0,3.6,0.6,5.1,1.6l53.7,38l0.4,2.1l-38,53.7c-1.6,2.3-4.3,3.7-7.2,3.7c-1.8,0-3.6-0.6-5.1-1.6l-5.6-3.9
				c-1.9-1.4-3.2-3.4-3.6-5.7c-0.4-2.3,0.1-4.6,1.5-6.5L185,60L78.4,78.1c-20.7,3.5-34.8,23-31.5,43.5c1.5,9,6.2,17.2,13.2,23.1
				c4,3.3,4.8,9.3,1.8,13.5l-5.1,7.1C55,168,51.9,169.6,48.7,169.6C48.7,169.6,48.7,169.6,48.7,169.6z"/>
			<path class="st1" d="M169.3,1.2c1.4,0,2.7,0.4,3.9,1.2l53,37.5l0.1,0.4l-37.5,53c-1.3,1.9-3.4,2.9-5.5,2.9
				c-1.4,0-2.7-0.4-3.9-1.2l-5.6-3.9c-3.1-2.2-3.8-6.4-1.6-9.4l17.3-24.5l-111.4,19c-21.7,3.7-36.7,24.1-33.2,45.8
				c1.6,9.9,6.7,18.4,13.9,24.3c3.2,2.7,3.9,7.4,1.5,10.8l-5.1,7.1c-1.6,2.2-4,3.4-6.6,3.4c-1.8,0-3.5-0.6-5-1.8
				c-11.8-9.5-20.3-23.3-23.1-39.4v0c-6-35.2,17.6-68.6,52.8-74.6l108.3-18.5l-20.3-14.4c-3.1-2.2-3.8-6.4-1.6-9.4l3.9-5.6
				C165.1,2.2,167.2,1.2,169.3,1.2 M169.3-2.8C169.3-2.8,169.3-2.8,169.3-2.8c-3.5,0-6.8,1.7-8.8,4.5l-3.9,5.6
				c-3.4,4.8-2.3,11.6,2.6,15l12.4,8.8L72.8,47.9c-18.1,3.1-33.8,13-44.4,28c-10.6,15-14.7,33.1-11.7,51.2
				c2.8,16.5,11.5,31.4,24.5,41.8c2.1,1.7,4.8,2.6,7.5,2.6c3.9,0,7.6-1.9,9.8-5.1l5.1-7.1c3.6-5.1,2.7-12.2-2.2-16.2
				c-6.7-5.5-11.1-13.3-12.5-21.9c-3.1-19.4,10.3-37.8,29.9-41.2l101.9-17.4l-11.7,16.6c-3.4,4.8-2.3,11.6,2.6,15l5.6,3.9
				c1.8,1.3,4,2,6.2,2c3.5,0,6.8-1.7,8.8-4.5l37.5-53l1-1.4l-0.3-1.6l-0.1-0.4l-0.3-1.6l-1.4-1l-53-37.5
				C173.7-2.1,171.6-2.8,169.3-2.8L169.3-2.8L169.3-2.8z"/>
		</g>
	</g>
	<g class="st2">
		<path class="st3" d="M73.8,65.3c-1.4,0-2.6-1-2.8-2.4c-0.3-1.6,0.8-3,2.3-3.3l106.8-18.2c1.6-0.3,3,0.8,3.3,2.3
			c0.3,1.6-0.8,3-2.3,3.3L74.3,65.2C74.1,65.3,74,65.3,73.8,65.3z"/>
	</g>
	<g class="st2">
		<path class="st3" d="M100.4,174.2c-1.4,0-2.6-1-2.8-2.4c-0.3-1.6,0.8-3,2.3-3.3l106.8-18.2c1.6-0.3,3,0.8,3.3,2.3
			c0.3,1.6-0.8,3-2.3,3.3l-106.8,18.2C100.8,174.2,100.6,174.2,100.4,174.2z"/>
	</g>
	<g class="st2">
		<path class="st3" d="M49.9,161.1c-0.4,0-0.7-0.1-1-0.3c-0.4-0.2-37.8-25-14.9-78.2c0.4-1,1.5-1.4,2.5-1c1,0.4,1.4,1.5,1,2.5
			c-21.7,50.2,13.1,73.2,13.4,73.4c0.9,0.6,1.1,1.7,0.6,2.6C51.1,160.8,50.5,161.1,49.9,161.1z"/>
	</g>
	<g class="st2">
		<path class="st3" d="M245,135.9c0.3-0.1,0.7-0.3,0.9-0.6c0.3-0.3,29.9-34.1-6.3-79.3c-0.7-0.8-1.9-1-2.7-0.3
			c-0.8,0.7-1,1.9-0.3,2.7c34.2,42.7,6.7,74.1,6.5,74.4c-0.7,0.8-0.6,2,0.1,2.7C243.7,135.9,244.4,136.1,245,135.9z"/>
	</g>
</g>
</svg>
