<?xml version="1.0" encoding="utf-8"?>
<!-- Generator: Adobe Illustrator 25.0.1, SVG Export Plug-In . SVG Version: 6.00 Build 0)  -->
<svg version="1.1" id="Layer_1" xmlns="http://www.w3.org/2000/svg" xmlns:xlink="http://www.w3.org/1999/xlink" x="0px" y="0px"
	 viewBox="0 0 287.7 215.8" style="enable-background:new 0 0 287.7 215.8;" xml:space="preserve">
<style type="text/css">
	.st0{fill:#229E45;}
	.st1{fill:#F8E509;}
	.st2{fill:#2B49A3;}
	.st3{fill:#FFFFEF;}
	.st4{fill:#FFFFFF;}
	.st5{fill:#309E3A;}
	.st6{fill:#F7FFFF;}
</style>
<g id="Layer_2_1_">
	<g id="Layer_21">
		<g>
			<path class="st0" d="M26.6,0h234.5c14.7,0,26.6,11.9,26.6,26.6v162.6c0,14.7-11.9,26.6-26.6,26.6H26.6
				C11.9,215.8,0,203.9,0,189.2V26.6C0,11.9,11.9,0,26.6,0z"/>
			<path class="st1" d="M144.5,196.1l135.5-88L143.7,19.9l-136,88.4L144.5,196.1z"/>
			<path class="st2" d="M203.5,108c0,31.6-25.7,57.2-57.3,57.2c-31.6,0-57.2-25.7-57.2-57.3s25.7-57.2,57.3-57.2c0,0,0,0,0,0
				C178,50.7,203.5,76.4,203.5,108z"/>
			<path class="st3" d="M127.3,142.3l-1.8-1l-1.8,0.9l0.4-2l-1.4-1.5l2-0.2l1-1.8l0.9,1.9l2,0.4l-1.5,1.3 M165.7,152l-1.8-1
				l-1.8,0.9l0.4-2l-1.4-1.5l2-0.2l0.9-1.8l0.9,1.9l2,0.4l-1.5,1.4 M149.2,136.4l-1.5-0.9l-1.6,0.8l0.4-1.8l-1.3-1.3l1.8-0.2
				l0.8-1.6l0.7,1.7l1.8,0.3l-1.3,1.2 M188,130.8l-1.5-0.9l-1.6,0.8l0.4-1.8l-1.2-1.3l1.8-0.2l0.8-1.6l0.7,1.6l1.7,0.3l-1.3,1.2
				 M148.5,119.2l-1.8-1l-1.8,0.9l0.4-2.1l-1.4-1.5l2-0.2l0.9-1.8l0.9,1.9l2,0.4l-1.5,1.4 M101.2,101.5l-1.8-1l-1.8,0.9l0.4-2.1
				l-1.5-1.5l2.1-0.2l0.9-1.8l0.9,1.9l2,0.4l-1.5,1.4 M106.9,125.1l-1.8-1l-1.8,0.9l0.4-2l-1.4-1.5l2-0.3l0.9-1.8l0.9,1.9l2,0.4
				l-1.5,1.4 M166,92.8l-1.6-0.9l-1.6,0.8l0.4-1.8l-1.3-1.3l1.8-0.2l0.9-1.6l0.8,1.7l1.8,0.3l-1.3,1.2 M162.7,108.1l-1.2-0.7
				l-1.3,0.6l0.3-1.4l-1-1l1.4-0.2l0.7-1.3l0.6,1.3l1.3,0.2l-1,1 M98.6,129.4l-1.2-0.7l-1.2,0.6l0.3-1.3l-0.9-1l1.3-0.2l0.6-1.2
				l0.6,1.3l1.3,0.3l-1,0.9 M188.3,134.9l-1-0.5l-1,0.4l0.2-1l-0.8-0.7l1.1-0.1l0.5-0.9l0.4,0.9l1.1,0.2l-0.9,0.7"/>
			<path class="st3" d="M98.6,129.4l-1.2-0.7l-1.2,0.6l0.3-1.3l-0.9-1l1.3-0.2l0.6-1.2l0.6,1.3l1.3,0.3l-1,0.9"/>
			<path class="st3" d="M98.6,129.4l-1.2-0.7l-1.2,0.6l0.3-1.3l-0.9-1l1.3-0.2l0.6-1.2l0.6,1.3l1.3,0.3l-1,0.9 M117.4,129.3
				l-1.2-0.6l-1.2,0.6l0.3-1.3l-0.9-1l1.3-0.2l0.6-1.2l0.6,1.3l1.3,0.2l-1,0.9 M115,135.6l-1.2-0.7l-1.2,0.6l0.3-1.3l-0.9-1l1.3-0.2
				l0.6-1.2l0.6,1.3l1.3,0.3l-1,0.9 M154.1,124.2l-1.2-0.7l-1.3,0.6l0.3-1.3l-0.9-1l1.3-0.1l0.6-1.2l0.5,1.3l1.3,0.2l-1,0.9
				 M142.7,124.2l-1.2-0.7l-1.2,0.6l0.3-1.3l-0.9-1l1.3-0.1l0.6-1.3l0.5,1.3l1.3,0.2l-1,0.9 M111.6,120.2l-0.8-0.4l-0.8,0.4l0.2-0.9
				l-0.6-0.6l0.9-0.1l0.4-0.8l0.4,0.8l0.9,0.1l-0.6,0.6 M186.9,139.7l-1.2-0.7l-1.2,0.6l0.3-1.3l-0.9-1l1.3-0.2l0.6-1.2l0.6,1.3
				l1.3,0.3l-1,0.9 M177.3,141.1l-1-0.6l-1,0.5l0.2-1.2l-0.8-0.8l1.1-0.1l0.5-1l0.4,1.1l1.1,0.2l-0.9,0.8 M181.8,140.9l-0.9-0.5
				l-0.9,0.4l0.2-1l-0.7-0.8l1-0.1l0.5-0.9l0.4,0.9l1,0.2l-0.8,0.7 M194.8,129.6l-0.9-0.4l-0.9,0.4l0.2-1l-0.7-0.8l1-0.1l0.4-0.9
				l0.4,0.9l0.9,0.2l-0.7,0.7 M177.2,147.4l-1.1-0.6l-1.2,0.5l0.3-1.3l-0.9-0.9l1.3-0.1l0.6-1.1l0.5,1.2l1.3,0.2l-1,0.9
				 M177.3,152.5l-1.1-0.6l-1.1,0.6l0.3-1.3l-0.9-0.9l1.2-0.2l0.5-1.1l0.5,1.2l1.2,0.2l-0.9,0.9 M168.6,140.9l-0.9-0.5l-0.9,0.4
				l0.2-1l-0.7-0.8l1-0.1l0.4-0.9l0.4,0.9l1,0.2l-0.7,0.7 M160.5,140.9l-0.9-0.5l-0.9,0.4l0.2-1l-0.7-0.8l1-0.1l0.4-0.9l0.4,0.9
				l0.9,0.2l-0.7,0.7 M146.7,128.8l-0.9-0.5l-0.9,0.4l0.2-1l-0.7-0.7l1-0.1l0.4-0.9l0.4,0.9l1,0.2l-0.7,0.7 M148.2,153.4l-0.7-0.4
				l-0.8,0.4l0.2-0.9l-0.6-0.6l0.9-0.1l0.4-0.8l0.4,0.8l0.9,0.1l-0.6,0.6 M127.3,113.6l-1.8-1l-1.8,0.9l0.4-2l-1.4-1.5l2-0.3l1-1.8
				l0.9,1.9l2,0.4l-1.5,1.4"/>
			<path class="st4" d="M199.8,128.6c1.1-2.9,2-5.9,2.6-8.9C171.9,92.9,137.9,79.2,95.1,82c-1.6,3-2.8,6.2-3.8,9.4
				C131.1,87.4,170.7,100.9,199.8,128.6L199.8,128.6z"/>
			<path class="st5" d="M186.1,113.5l1,0.6c-0.2,0.3-0.2,0.7-0.1,1c0.1,0.3,0.3,0.6,0.6,0.8c0.2,0.2,0.6,0.3,0.9,0.3
				c0.2,0,0.5-0.1,0.6-0.3c0.1-0.1,0.1-0.3,0.1-0.4c0-0.2-0.1-0.3-0.2-0.4c-0.2-0.3-0.4-0.6-0.7-0.8c-0.4-0.4-0.6-0.8-0.8-1.3
				c-0.2-0.8,0.2-1.6,0.9-2c0.3-0.1,0.7-0.2,1-0.1c0.4,0.1,0.8,0.3,1.2,0.5c0.5,0.3,1,0.8,1.2,1.4c0.1,0.5,0,1-0.3,1.5l-1.1-0.7
				c0.1-0.2,0.2-0.5,0.1-0.8c-0.1-0.3-0.3-0.5-0.5-0.6c-0.2-0.2-0.5-0.3-0.8-0.3c-0.2,0-0.3,0.1-0.4,0.2c-0.1,0.1-0.1,0.3,0,0.4
				c0.2,0.4,0.4,0.7,0.7,1c0.3,0.3,0.6,0.7,0.9,1.1c0.3,0.6,0.3,1.3-0.1,1.9c-0.2,0.3-0.5,0.5-0.9,0.7c-0.3,0.2-0.7,0.2-1.1,0.1
				c-0.5-0.1-0.9-0.3-1.3-0.6c-0.6-0.3-1-0.9-1.2-1.5C185.6,114.7,185.7,114,186.1,113.5L186.1,113.5z M180.9,110.1l1.1,0.6
				c-0.1,0.3-0.2,0.7-0.1,1c0.1,0.3,0.3,0.6,0.6,0.7c0.3,0.2,0.6,0.3,0.9,0.3c0.2,0,0.5-0.1,0.6-0.4c0.1-0.1,0.1-0.2,0.1-0.4
				c0-0.2-0.1-0.3-0.2-0.4c-0.2-0.3-0.5-0.5-0.7-0.8c-0.4-0.3-0.7-0.8-0.9-1.3c-0.1-0.5-0.1-1,0.2-1.4c0.2-0.3,0.4-0.5,0.7-0.6
				c0.3-0.1,0.7-0.2,1-0.1c0.4,0.1,0.8,0.2,1.2,0.4c0.6,0.3,1,0.8,1.2,1.4c0.2,0.5,0.1,1.1-0.2,1.5l-1.1-0.6
				c0.1-0.2,0.2-0.5,0.1-0.8c-0.1-0.3-0.3-0.5-0.6-0.6c-0.2-0.2-0.5-0.3-0.9-0.3c-0.1,0-0.3,0.1-0.4,0.2c-0.1,0.1-0.1,0.3,0,0.4
				c0.2,0.4,0.4,0.7,0.8,1c0.3,0.3,0.7,0.7,0.9,1.1c0.4,0.6,0.4,1.3,0,1.9c-0.2,0.3-0.5,0.6-0.8,0.7c-0.3,0.2-0.7,0.2-1.1,0.1
				c-0.5-0.1-0.9-0.2-1.3-0.5c-0.6-0.3-1-0.8-1.3-1.4C180.5,111.3,180.6,110.7,180.9,110.1L180.9,110.1z M174.5,108.3l3.3-5.4l4,2.5
				l-0.5,0.9l-2.9-1.8l-0.7,1.2l2.7,1.7l-0.6,0.9l-2.7-1.7l-0.9,1.5l3,1.8l-0.5,0.9L174.5,108.3L174.5,108.3z M165.2,100.8l0.5-0.9
				l2.4,1.2l-1.1,2.2c-0.4,0.1-0.9,0.1-1.3,0.1c-0.5-0.1-1-0.2-1.5-0.4c-0.5-0.3-1-0.7-1.3-1.2c-0.3-0.5-0.5-1-0.4-1.6
				c0-0.6,0.2-1.2,0.4-1.7c0.3-0.5,0.7-1,1.2-1.3c0.9-0.6,2.1-0.7,3.1,0c0.6,0.2,1.1,0.7,1.4,1.3c0.2,0.5,0.3,1,0.1,1.6l-1.2-0.4
				c0.1-0.3,0-0.6-0.1-0.9c-0.2-0.3-0.4-0.5-0.7-0.6c-0.4-0.2-0.9-0.3-1.4-0.1c-0.5,0.2-1,0.6-1.2,1.2c-0.3,0.5-0.4,1.1-0.3,1.7
				c0.1,0.5,0.5,0.9,0.9,1.1c0.2,0.1,0.5,0.2,0.8,0.2c0.3,0,0.5,0,0.8,0l0.4-0.7L165.2,100.8L165.2,100.8z M124.6,90.8l0.9-6.3
				l1.9,0.3l0.5,4.4l1.8-4l1.9,0.3l-0.9,6.2l-1.2-0.2l0.8-4.9l-2,4.7l-1.2-0.2l-0.5-5.1l-0.7,4.9L124.6,90.8L124.6,90.8z M118.3,90
				l0.6-6.3l4.6,0.4l-0.1,1.1l-3.4-0.3l-0.1,1.3l3.1,0.3l-0.1,1.1l-3.1-0.3l-0.1,1.7l3.5,0.3l-0.1,1.1C123.1,90.4,118.3,90,118.3,90
				z"/>
			<g>
				<path class="st5" d="M97.3,86.1c0-0.6,0.1-1.1,0.3-1.6c0.2-0.3,0.4-0.6,0.6-0.9c0.2-0.2,0.5-0.4,0.8-0.5
					c0.4-0.1,0.9-0.2,1.3-0.2c0.8,0,1.6,0.3,2.2,0.9c0.6,0.7,0.8,1.6,0.7,2.5c0,0.9-0.3,1.7-0.9,2.4c-0.6,0.6-1.4,0.8-2.2,0.8
					c-0.8,0-1.6-0.3-2.2-0.9C97.5,87.8,97.2,86.9,97.3,86.1z"/>
				<path class="st6" d="M98.6,86.1c0,0.6,0.1,1.1,0.4,1.6c0.3,0.4,0.8,0.6,1.3,0.6c0.5,0,0.9-0.1,1.3-0.5c0.3-0.5,0.5-1.1,0.5-1.7
					c0.1-0.6-0.1-1.2-0.4-1.6c-0.3-0.4-0.7-0.6-1.2-0.6c-0.5,0-0.9,0.2-1.3,0.5C98.8,84.9,98.6,85.5,98.6,86.1L98.6,86.1z"/>
			</g>
			<g>
				<path class="st5" d="M104.7,89.4l0.1-6.3h2.7c0.5,0,1,0.1,1.4,0.2c0.3,0.1,0.6,0.3,0.7,0.6c0.2,0.3,0.3,0.7,0.3,1
					c0,0.4-0.2,0.8-0.4,1.2c-0.3,0.3-0.8,0.5-1.2,0.5l0.7,0.5c0.3,0.3,0.5,0.7,0.7,1l0.8,1.2h-1.4L108,88l-0.6-0.9
					c-0.1-0.1-0.2-0.2-0.4-0.3c-0.2-0.1-0.4-0.1-0.6-0.1h-0.2v2.7L104.7,89.4z"/>
				<path class="st4" d="M106.1,85.9h0.9c0.4,0,0.8-0.1,1.2-0.2c0.1,0,0.3-0.1,0.4-0.2c0.1-0.1,0.1-0.3,0.1-0.4c0-0.3,0-0.4-0.2-0.5
					c-0.1-0.1-0.3-0.3-0.4-0.4h-0.9l-1,0C106.1,84.1,106.1,85.9,106.1,85.9z"/>
			</g>
			<g>
				<path class="st5" d="M111.9,83.3l2.3,0.1c0.4,0,0.8,0,1.2,0.1c0.4,0.1,0.7,0.3,0.9,0.6c0.3,0.3,0.4,0.7,0.5,1.1
					c0.1,0.5,0.2,1,0.1,1.5c0,0.5-0.1,0.9-0.2,1.3c-0.2,0.4-0.4,0.8-0.8,1.1c-0.3,0.2-0.6,0.4-0.9,0.4c-0.4,0.1-0.7,0.1-1.1,0.1
					l-2.4-0.1L111.9,83.3L111.9,83.3z"/>
				<path class="st4" d="M113.2,84.5l-0.2,4h1.7c0.2,0,0.4-0.1,0.5-0.2c0.2-0.2,0.3-0.4,0.3-0.6c0.1-0.4,0.2-0.7,0.2-1.1l0-1.1
					c-0.1-0.2-0.2-0.4-0.3-0.6c-0.1-0.1-0.3-0.2-0.5-0.3c-0.3-0.1-0.7-0.1-1-0.1L113.2,84.5z"/>
			</g>
			<g>
				<path class="st5" d="M142.8,94.6l1.5-6.1l2,0.4l1.4,0.4c0.3,0.2,0.6,0.5,0.7,0.9c0.2,0.4,0.2,0.8,0.1,1.3
					c-0.1,0.3-0.2,0.6-0.4,0.9c-0.3,0.4-0.8,0.6-1.3,0.6c-0.5,0-0.9-0.1-1.3-0.2l-0.8-0.2l-0.5,2.3L142.8,94.6L142.8,94.6z"/>
				<path class="st4" d="M145.2,89.9l-0.4,1.7l0.7,0.2c0.3,0.1,0.7,0.1,1,0.1c0.4-0.1,0.6-0.3,0.7-0.7c0-0.2,0-0.4-0.1-0.6
					c-0.1-0.2-0.3-0.3-0.4-0.4l-0.9-0.2L145.2,89.9L145.2,89.9z"/>
			</g>
			<g>
				<path class="st5" d="M148.6,96.3l2.1-5.9l2.5,0.9c0.5,0.1,0.9,0.4,1.3,0.6c0.2,0.2,0.4,0.5,0.4,0.8c0.1,0.3,0.1,0.7,0,1
					c-0.2,0.4-0.4,0.8-0.8,1c-0.4,0.2-0.9,0.2-1.3,0.1c0.2,0.2,0.3,0.5,0.4,0.7l0.4,1.2l0.3,1.4l-1.4-0.5l-0.4-1.6
					c-0.1-0.4-0.2-0.7-0.3-1.1c-0.1-0.1-0.2-0.3-0.3-0.4c-0.2-0.2-0.4-0.3-0.6-0.3l-0.2-0.1l-0.9,2.5L148.6,96.3L148.6,96.3z"/>
				<path class="st4" d="M151,93.5l0.9,0.3c0.4,0.2,0.7,0.3,1.1,0.3c0.1,0,0.3,0,0.4-0.1c0.1-0.1,0.2-0.2,0.3-0.4
					c0.1-0.2,0.1-0.4,0-0.5c-0.1-0.2-0.2-0.3-0.4-0.4l-0.9-0.3l-0.9-0.3L151,93.5L151,93.5z"/>
			</g>
			<g>
				<path class="st5" d="M156,96.1c0.2-0.5,0.4-1,0.8-1.4c0.2-0.3,0.5-0.5,0.8-0.7c0.3-0.2,0.6-0.3,0.9-0.3c0.5,0,0.9,0,1.4,0.2
					c0.8,0.2,1.5,0.7,1.9,1.5c0.3,0.8,0.4,1.7,0.1,2.6c-0.2,0.8-0.8,1.6-1.5,2c-0.7,0.4-1.6,0.5-2.3,0.2c-0.8-0.2-1.5-0.7-1.9-1.5
					C155.7,97.8,155.7,96.9,156,96.1L156,96.1z"/>
				<path class="st4" d="M157.2,96.5c-0.2,0.6-0.2,1.2,0,1.7c0.2,0.4,0.6,0.8,1,0.9c0.5,0.1,0.9,0.1,1.3-0.2
					c0.5-0.3,0.8-0.9,0.9-1.4c0.2-0.5,0.2-1.1,0-1.7c-0.2-0.4-0.5-0.8-1-0.9c-0.4-0.2-0.9-0.1-1.3,0.1
					C157.7,95.4,157.4,95.9,157.2,96.5z"/>
			</g>
			<g>
				<path class="st5" d="M168.2,104.9l2.9-5.6l2.4,1.2c0.4,0.2,0.9,0.5,1.2,0.9c0.2,0.2,0.4,0.5,0.4,0.9c0,0.3,0,0.7-0.2,1
					c-0.2,0.4-0.5,0.7-0.9,0.9c-0.5,0.1-0.9,0.1-1.4-0.1c0.1,0.2,0.3,0.5,0.4,0.8c0.1,0.4,0.2,0.8,0.2,1.3l0.1,1.4l-1.3-0.7
					l-0.2-1.7c0-0.4-0.1-0.8-0.1-1.1c0-0.2-0.1-0.3-0.2-0.4l-0.5-0.3l-0.2-0.1l-1.2,2.3L168.2,104.9L168.2,104.9z"/>
				<path class="st4" d="M171,102.2l0.9,0.4c0.3,0.2,0.7,0.3,1,0.4c0.2,0,0.3,0,0.4-0.1c0.1,0,0.2-0.2,0.3-0.4
					c0.1-0.2,0.1-0.4,0.1-0.5c-0.1-0.2-0.2-0.3-0.3-0.4c-0.3-0.2-0.5-0.3-0.8-0.4l-0.9-0.4L171,102.2z"/>
			</g>
			<g>
				<path class="st5" d="M191.5,116.4c0.3-0.5,0.7-0.9,1.1-1.2c0.3-0.2,0.6-0.3,1-0.4c0.3-0.1,0.7-0.1,1,0c0.5,0.1,0.9,0.3,1.3,0.5
					c0.7,0.4,1.2,1.2,1.3,2c0.1,0.9-0.1,1.8-0.6,2.5c-0.5,0.7-1.2,1.3-2,1.5c-0.8,0.2-1.7,0-2.3-0.5c-0.7-0.4-1.2-1.2-1.3-2
					C190.8,117.9,191,117.1,191.5,116.4z"/>
				<path class="st4" d="M192.7,117.3c-0.4,0.4-0.6,1-0.5,1.6c0.1,0.5,0.3,0.9,0.7,1.1c0.4,0.3,0.9,0.4,1.3,0.3
					c0.6-0.2,1-0.6,1.3-1.1c0.4-0.5,0.5-1,0.5-1.6c-0.1-0.5-0.3-0.9-0.7-1.2c-0.4-0.3-0.9-0.4-1.3-0.2
					C193.4,116.4,192.9,116.8,192.7,117.3L192.7,117.3z"/>
			</g>
			<path class="st5" d="M135.7,92l1-4.4l3.2,0.8l-0.1,0.7l-2.4-0.5l-0.2,1l2.2,0.5l-0.2,0.8l-2.2-0.5l-0.3,1.2l2.5,0.6l-0.2,0.7
				L135.7,92L135.7,92z"/>
		</g>
	</g>
</g>
</svg>
