<svg xmlns="http://www.w3.org/2000/svg" width="287" height="238.018" viewBox="0 0 287 238.018">
  <g id="Layer_2" data-name="Layer 2">
    <g id="Jokesicon">
      <g>
        <g>
          <path d="M143.71,236.336a117.7,117.7,0,0,1-81.582-33.221c-.841-.841-.841-1.683-.421-2.1a216.492,216.492,0,0,0,11.355-23.97c2.1-4.626,1.261-10.513-1.262-15.139a16.258,16.258,0,0,0-12.616-7.99A222.477,222.477,0,0,0,36.9,152.651h-4.2c-.841,0-1.682-.42-1.682-1.261-14.3-50.884,7.149-105.553,52.566-132.466a116.832,116.832,0,0,1,141.3,16.821c.841.841.841,1.682.421,2.1a216.492,216.492,0,0,0-11.355,23.97c-2.1,4.626-1.261,10.514,1.262,15.139a16.258,16.258,0,0,0,12.616,7.99c8.41.841,15.98,1.262,22.287,1.262h4.206c.841,0,1.682.421,1.682,1.262,14.3,50.883-7.149,105.552-52.566,132.466A120.32,120.32,0,0,1,143.71,236.336Zm69.808-121.112a5.839,5.839,0,0,0-4.206,2.1c-10.092,11.354-26.493,24.391-45.837,35.745s-38.689,20.185-53.407,23.549a4.522,4.522,0,0,0-3.785,3.365,4.473,4.473,0,0,0,.841,5.046,40.374,40.374,0,0,0,20.185,11.775,63.094,63.094,0,0,0,15.56,1.682,86.075,86.075,0,0,0,41.211-10.934c29.437-17.662,41.633-50.463,34.484-68.966A5.23,5.23,0,0,0,213.518,115.224ZM75.585,103.87a3.258,3.258,0,0,0-3.364,2.944c-.421,1.261.42,3.364,2.523,4.205l23.129,7.99a2.313,2.313,0,0,1,1.261,2.1l-3.784,23.97c-.421,1.261.42,2.1.841,2.943a3.818,3.818,0,0,0,2.943,1.262,3.333,3.333,0,0,0,2.944-2.1l20.606-38.268c.841-1.261.841-2.523,0-3.364a3.176,3.176,0,0,0-2.944-1.682Zm89.572-53.407a3.334,3.334,0,0,0-2.944,2.1L141.607,90.834c-.841,1.261-.841,2.523,0,3.364a3.413,3.413,0,0,0,3.364,1.682h43.315a3.259,3.259,0,0,0,3.364-2.944,4.31,4.31,0,0,0-2.523-4.205L166,80.741a2.312,2.312,0,0,1-1.262-2.1l3.785-23.97c.421-1.262-.42-2.1-.841-2.944A3,3,0,0,0,165.157,50.463ZM27.224,213.628a25.755,25.755,0,0,1-21.867-12.2,25.117,25.117,0,0,1,8.41-34.483c3.785-2.523,11.355-3.364,21.868-3.364,8.831,0,17.662.841,21.867,1.262a6.893,6.893,0,0,1,4.626,2.943,7.038,7.038,0,0,1,.421,5.047c-5.888,14.718-14.719,32.8-23.129,37.426a22.993,22.993,0,0,1-12.2,3.365Zm223.3-138.774c-8.831,0-17.662-.841-21.867-1.262a6.893,6.893,0,0,1-4.626-2.943,7.033,7.033,0,0,1-.42-5.047c5.887-14.718,14.718-32.8,23.129-37.427a25.585,25.585,0,0,1,34.483,8.831,25.118,25.118,0,0,1-8.411,34.484c-4.2,2.1-11.354,3.364-22.288,3.364Z" fill="#ffce00"/>
          <path d="M142.869,3.785c29.437,0,58.874,11.354,80.321,32.8a213.3,213.3,0,0,0-11.775,23.97c-3.785,8.831,0,23.549,15.559,25.652,9.252.841,16.4,1.262,22.709,1.262h4.205a115.37,115.37,0,0,1-110.6,146.764c-29.437,0-58.874-11.355-80.321-32.8a213.477,213.477,0,0,0,11.775-23.97c3.785-8.831,0-23.549-15.56-25.652-9.251-.841-16.4-1.261-22.288-1.261h-4.2A115.273,115.273,0,0,1,84.416,20.185a113.912,113.912,0,0,1,58.453-16.4m45,94.2c6.307,0,7.99-8.831,2.1-10.934l-23.129-7.99,3.785-23.97c.841-3.785-2.523-6.308-5.467-6.308a5.949,5.949,0,0,0-5.046,2.944h0L139.505,89.993c-2.1,3.364.841,7.99,5.046,7.99h43.315M98.714,151.39a5.491,5.491,0,0,0,5.046-2.944l20.606-38.268c2.1-3.785-.841-7.99-5.046-7.99H76.005c-6.308,0-7.99,8.831-2.1,10.934l23.129,7.99-3.785,23.97c-.841,3.785,2.523,6.308,5.467,6.308m44.155,49.2c14.719,0,30.278-4.205,42.053-11.354h0c23.97-14.3,44.576-47.519,35.324-71.489a7.644,7.644,0,0,0-6.728-4.626,6.781,6.781,0,0,0-5.467,2.523c-9.672,10.934-26.493,23.97-45.417,35.324-19.344,11.354-38.268,19.765-52.566,23.129a7.418,7.418,0,0,0-3.784,12.195,36.744,36.744,0,0,0,21.446,12.2c4.2,1.682,9.672,2.1,15.139,2.1m116.486-174.1A24.157,24.157,0,0,1,279.54,37.847a23.21,23.21,0,0,1-7.569,31.961c-4.2,2.523-12.616,3.364-21.026,3.364-7.991,0-16.4-.841-21.868-1.262a4.206,4.206,0,0,1-3.364-5.467c4.205-9.672,13.877-31.96,21.867-36.586a20.141,20.141,0,0,1,11.775-3.364M36.055,165.267c7.99,0,16.4.841,21.868,1.262A4.206,4.206,0,0,1,61.287,172c-4.2,9.672-13.877,31.96-21.868,36.585a22.283,22.283,0,0,1-11.354,3.365A24.159,24.159,0,0,1,7.88,200.591a23.21,23.21,0,0,1,7.569-31.96c3.785-2.523,11.775-3.364,20.606-3.364M142.869,0h0A117.281,117.281,0,0,0,82.313,16.821,118.928,118.928,0,0,0,28.906,151.39a4.04,4.04,0,0,0,3.785,2.943h4.2c6.308,0,13.457.421,21.868,1.262,5.046.841,8.831,2.944,11.354,7.149,2.1,3.785,2.944,9.252.841,13.457A207.241,207.241,0,0,1,59.605,199.75c-.841,1.682-.841,3.365.841,4.626,22.288,21.868,51.725,33.642,83.264,33.642A117.281,117.281,0,0,0,204.266,221.2,118.926,118.926,0,0,0,257.673,86.629a4.039,4.039,0,0,0-3.785-2.944h-4.205a214.711,214.711,0,0,1-21.867-1.262c-5.047-.841-8.831-2.943-11.355-7.149A15.321,15.321,0,0,1,215.2,61.818a207.179,207.179,0,0,1,11.354-23.55c.841-1.682.841-3.364-.841-4.626A117.755,117.755,0,0,0,142.869,0Zm45,94.2H144.551a2.187,2.187,0,0,1-1.682-.841c0-.421-.42-.841,0-1.682l20.606-38.268c.42-.841.841-.841,1.262-.841a3.188,3.188,0,0,1,1.682.841,1.546,1.546,0,0,1,.42,1.262l-3.785,23.97c-.42,1.682.841,3.364,2.523,4.2l23.129,7.99c1.262.42,1.262,1.261,1.262,2.1a2.62,2.62,0,0,1-2.1,1.262ZM98.714,147.6a3.188,3.188,0,0,1-1.682-.841,1.545,1.545,0,0,1-.421-1.262l3.785-23.97c.42-1.682-.841-3.364-2.523-4.2l-23.129-7.99c-1.262-.421-1.262-1.262-1.262-2.1a1.768,1.768,0,0,1,1.682-1.682h43.314a2.187,2.187,0,0,1,1.683.841c0,.421.42.841,0,1.682L99.555,146.343c0,.841-.421,1.262-.841,1.262Zm44.155,49.2a83.338,83.338,0,0,1-15.139-1.682c-8.41-2.1-14.718-5.888-19.344-11.355a3.91,3.91,0,0,1-.841-3.364c.42-.841.841-2.1,2.523-2.1,14.718-3.364,34.483-12.195,53.827-23.549s36.166-24.811,46.258-36.165a4.634,4.634,0,0,1,2.523-1.262h0a4.288,4.288,0,0,1,3.365,2.1c3.784,10.092,2.1,23.129-5.047,36.165-6.308,12.195-17.241,23.55-28.6,30.7-10.512,6.729-25.652,10.514-39.529,10.514Zm116.486-174.1A26.089,26.089,0,0,0,245.9,26.493c-8.41,5.046-17.662,23.55-23.549,38.689a7.612,7.612,0,0,0,.42,6.728,8.178,8.178,0,0,0,5.888,3.785c4.625.42,13.457,1.261,22.288,1.261,10.933,0,18.5-1.261,23.129-3.784a26.484,26.484,0,0,0,12.195-16.4A27.313,27.313,0,0,0,282.9,36.165a27.877,27.877,0,0,0-23.55-13.457ZM36.055,161.482c-10.933,0-18.5,1.262-23.129,3.785a26.48,26.48,0,0,0-12.195,16.4,27.306,27.306,0,0,0,3.364,20.6,27.351,27.351,0,0,0,23.55,13.457A26.09,26.09,0,0,0,41.1,211.946c8.41-5.047,17.662-23.55,23.549-38.689a7.612,7.612,0,0,0-.42-6.728,8.177,8.177,0,0,0-5.888-3.785c-5.046-.421-13.877-1.262-22.288-1.262Z" fill="#fff"/>
        </g>
        <g>
          <path d="M27.224,213.628a25.755,25.755,0,0,1-21.867-12.2,25.117,25.117,0,0,1,8.41-34.483c3.785-2.523,11.355-3.364,21.868-3.364,8.831,0,17.662.841,21.867,1.262a6.893,6.893,0,0,1,4.626,2.943,7.038,7.038,0,0,1,.421,5.047c-5.888,14.718-14.719,32.8-23.129,37.426a22.993,22.993,0,0,1-12.2,3.365Zm223.3-138.774c-8.831,0-17.662-.841-21.867-1.262a6.893,6.893,0,0,1-4.626-2.943,7.033,7.033,0,0,1-.42-5.047c5.887-14.718,14.718-32.8,23.129-37.427a25.585,25.585,0,0,1,34.483,8.831,25.118,25.118,0,0,1-8.411,34.484c-4.2,2.1-11.354,3.364-22.288,3.364Z" fill="#0af"/>
          <path d="M259.355,26.493A24.157,24.157,0,0,1,279.54,37.847a23.21,23.21,0,0,1-7.569,31.961c-4.2,2.523-12.616,3.364-21.026,3.364-7.991,0-16.4-.841-21.868-1.262a4.206,4.206,0,0,1-3.364-5.467c4.205-9.672,13.877-31.96,21.867-36.586a20.141,20.141,0,0,1,11.775-3.364M36.055,165.267c7.99,0,16.4.841,21.868,1.262A4.206,4.206,0,0,1,61.287,172c-4.2,9.672-13.877,31.96-21.868,36.585a22.283,22.283,0,0,1-11.354,3.365A24.159,24.159,0,0,1,7.88,200.591a23.21,23.21,0,0,1,7.569-31.96c3.785-2.523,11.775-3.364,20.606-3.364m223.3-142.559A26.089,26.089,0,0,0,245.9,26.493c-8.41,5.046-17.662,23.55-23.549,38.689a7.612,7.612,0,0,0,.42,6.728,8.178,8.178,0,0,0,5.888,3.785c4.625.42,13.457,1.261,22.288,1.261,10.933,0,18.5-1.261,23.129-3.784a26.484,26.484,0,0,0,12.195-16.4A27.313,27.313,0,0,0,282.9,36.165a27.877,27.877,0,0,0-23.55-13.457ZM36.055,161.482c-10.933,0-18.5,1.262-23.129,3.785a26.48,26.48,0,0,0-12.195,16.4,27.306,27.306,0,0,0,3.364,20.6,27.351,27.351,0,0,0,23.55,13.457A26.09,26.09,0,0,0,41.1,211.946c8.41-5.047,17.662-23.55,23.549-38.689a7.612,7.612,0,0,0-.42-6.728,8.177,8.177,0,0,0-5.888-3.785c-5.046-.421-13.877-1.262-22.288-1.262Z" fill="#fff"/>
        </g>
      </g>
    </g>
  </g>
</svg>
