<svg xmlns="http://www.w3.org/2000/svg" width="300" height="244.166" viewBox="0 0 300 244.166">
  <g id="Layer_2" data-name="Layer 2">
    <g id="Layer_22" data-name="Layer 22">
      <g>
        <g>
          <path d="M21.027,17.583a115.077,115.077,0,0,0-.078-11.6C20.462,1.232,22.544.08,26.9.017,55.89-.4,82.993,6.7,108.485,20.225A155.958,155.958,0,0,1,145.6,47.709c1.284,1.279,2.635,2.491,4.279,4.04C185.306,16.216,227.872-1.067,278.85.058V18.421c5.2,0,9.939.323,14.613-.087,5.07-.445,6.542,1.3,6.522,6.4-.186,46.7-.109,93.394-.109,140.09,0,20.775-.18,41.552.122,62.322.079,5.45-1.716,6.7-6.908,6.674-40.487-.2-80.975-.088-121.463-.146-3.639-.006-7.065-.258-7.829,4.561-.128.8-.958,1.551-1.581,2.215-6.042,6.441-23.266,4.1-26.734-3.935-1.491-3.453-3.869-2.779-6.279-2.781q-60.456-.049-120.912-.024c-8.286,0-8.291,0-8.291-8.366q0-99.83,0-199.657c0-7.259.013-7.245,7.106-7.276,4.046-.017,8.092-.082,12.137-.155A8.711,8.711,0,0,0,21.027,17.583ZM144.511,213.626v-4.693c0-46.876-.072-93.752.112-140.627a14.434,14.434,0,0,0-4.713-11.083c-24.413-24.6-53.894-39.2-88-44.639-6.411-1.023-12.934-1.347-19.459-2-.252,1.864-.432,2.575-.433,3.287Q32,94.113,31.92,174.354c-.009,4.239,2.029,4.623,5.412,4.787,22.2,1.077,44.011,4.766,64.534,13.308C116.347,198.476,130.052,206.364,144.511,213.626Zm123.375-202.4a24.845,24.845,0,0,0-3.479-.371c-41.564,2.712-77.363,18.126-106.2,48.528-1.754,1.849-2.712,5.191-2.721,7.843q-.24,71.142-.1,142.284c0,1.7.213,3.409.361,5.628,1.312-.756,1.962-1.054,2.527-1.468,30.712-22.5,65.79-32.081,103.194-34.393,5.427-.335,6.551-2.075,6.534-7.144-.179-51.656-.11-103.312-.11-154.968ZM11.054,29.588v192.65H92.091c-21.393-4.172-42.8-7.633-64.228-10.986-3.849-.6-7.283-1.9-6.641-6.326.683-4.713,4.383-5,8.523-4.322q35.658,5.829,71.36,11.4c6.741,1.063,13.508,1.966,20.263,2.943-30.722-19.131-64.761-24.963-100.557-25.9V29.588ZM288.705,222.427V29.711h-9.973V187.757c-18.006,2.522-35.381,4.27-52.464,7.541a133.357,133.357,0,0,0-47.856,19.071,20.309,20.309,0,0,0,6.087-.14q43.038-6.812,86.063-13.705c3.985-.644,7.413-.054,8.078,4.29.679,4.434-2.644,5.862-6.518,6.428-7.639,1.115-15.255,2.386-22.878,3.61q-20.737,3.328-41.47,6.676l.087.9Z"/>
          <path d="M144.511,213.626c-14.459-7.262-28.164-15.15-42.645-21.177-20.523-8.542-42.337-12.231-64.534-13.308-3.383-.164-5.421-.548-5.412-4.787q.18-80.241.1-160.482c0-.712.181-1.423.433-3.287,6.525.652,13.048.976,19.459,2,34.1,5.439,63.584,20.036,88,44.639a14.434,14.434,0,0,1,4.713,11.083c-.184,46.875-.112,93.751-.112,140.627Z" fill="#fff"/>
          <path d="M267.886,11.227v5.939c0,51.656-.069,103.312.11,154.968.017,5.069-1.107,6.809-6.534,7.144-37.4,2.312-72.482,11.9-103.194,34.393-.565.414-1.215.712-2.527,1.468-.148-2.219-.361-3.924-.361-5.628q-.027-71.142.1-142.284c.009-2.652.967-5.994,2.721-7.843,28.841-30.4,64.64-45.816,106.2-48.528A24.845,24.845,0,0,1,267.886,11.227Z" fill="#fff"/>
          <path d="M11.054,29.588h9.757V189.041c35.8.94,69.835,6.772,100.557,25.9-6.755-.977-13.522-1.88-20.263-2.943q-35.691-5.63-71.36-11.4c-4.14-.677-7.84-.391-8.523,4.322-.642,4.422,2.792,5.724,6.641,6.326,21.426,3.353,42.835,6.814,64.228,10.986H11.054Z" fill="#774d10"/>
          <path d="M288.705,222.427H207.861l-.087-.9q20.735-3.339,41.47-6.676c7.623-1.224,15.239-2.5,22.878-3.61,3.874-.566,7.2-1.994,6.518-6.428-.665-4.344-4.093-4.934-8.078-4.29q-43.017,6.947-86.063,13.705a20.309,20.309,0,0,1-6.087.14A133.357,133.357,0,0,1,226.268,195.3c17.083-3.271,34.458-5.019,52.464-7.541V29.711h9.973Z" fill="#774d10"/>
        </g>
        <g>
          <path d="M211.446,124.415a16.7,16.7,0,0,1-3.512,5.077,20.889,20.889,0,0,1-5.62,3.947,25.451,25.451,0,0,1-7.617,2.283,170.772,170.772,0,0,1-17.6,1.738,4.421,4.421,0,0,1-3.475-1.349,4.8,4.8,0,0,1-1.406-3.5V93.193a4.757,4.757,0,0,1,1.406-3.484,4.984,4.984,0,0,1,3.475-1.5,169.078,169.078,0,0,0,17.083-1.663c5.076-.734,9-.323,11.757,1.411a8.674,8.674,0,0,1,4.141,7.9A13.977,13.977,0,0,1,208.3,102.8a14.777,14.777,0,0,1-4.807,5.179,9.925,9.925,0,0,1,6.878,3.54,11.3,11.3,0,0,1,2.292,7.159A14.109,14.109,0,0,1,211.446,124.415Zm-12.5-28.094c-.863-.8-2.182-1.056-3.956-.8-4.314.633-8.627,1.155-12.941,1.487V106.7c4.314-.332,8.627-.854,12.941-1.487a5.746,5.746,0,0,0,3.956-2.125,5.987,5.987,0,0,0,1.294-3.65A4.049,4.049,0,0,0,198.949,96.321Zm3.513,20.565a3.976,3.976,0,0,0-1.221-1.753,5.562,5.562,0,0,0-2.144-1.052,7.556,7.556,0,0,0-3.069-.075c-4.659.7-9.318,1.282-13.976,1.641V128.07c4.658-.359,9.317-.938,13.976-1.641A8.455,8.455,0,0,0,199.1,125.4a7.706,7.706,0,0,0,2.144-1.832,6.977,6.977,0,0,0,1.221-2.239,7.621,7.621,0,0,0,.37-2.282A6.489,6.489,0,0,0,202.462,116.886Z"/>
          <path d="M253.819,117.942a17.752,17.752,0,0,1-3.365,5.482,18.389,18.389,0,0,1-5.065,3.915,17.631,17.631,0,0,1-6.323,1.937,11.61,11.61,0,0,1-5.657-.638,6.6,6.6,0,0,1-3.586-2.9,4.9,4.9,0,0,1-1.331,3.575,5.168,5.168,0,0,1-2.811,1.608,3.774,3.774,0,0,1-3.179-.783,3.615,3.615,0,0,1-1.331-2.945V85.631a5.035,5.035,0,0,1,1.331-3.379,5.3,5.3,0,0,1,3.179-1.841,3.7,3.7,0,0,1,3.143.779,3.648,3.648,0,0,1,1.294,2.939v17.082a8.452,8.452,0,0,1,1.294-1.824,12.127,12.127,0,0,1,2.034-1.776,13.483,13.483,0,0,1,2.625-1.43,11.205,11.205,0,0,1,3-.773,13.3,13.3,0,0,1,6.323.725,13.851,13.851,0,0,1,5.065,3.332,15.964,15.964,0,0,1,3.365,5.315,18.374,18.374,0,0,1,0,13.162Zm-8.246-9.695a7.381,7.381,0,0,0-1.553-2.724,6.421,6.421,0,0,0-2.514-1.689,7.2,7.2,0,0,0-3.4-.327,8.356,8.356,0,0,0-3.4,1.139,9.028,9.028,0,0,0-2.515,2.279,9.763,9.763,0,0,0-1.552,3.08,12.193,12.193,0,0,0-.518,3.556,10.617,10.617,0,0,0,.518,3.395,6.752,6.752,0,0,0,1.552,2.614,6.207,6.207,0,0,0,2.515,1.567,7.67,7.67,0,0,0,3.4.265,8.839,8.839,0,0,0,3.4-1.077,8.714,8.714,0,0,0,2.514-2.157,9.057,9.057,0,0,0,1.553-2.97,11.8,11.8,0,0,0,.518-3.513A11.043,11.043,0,0,0,245.573,108.247Z"/>
        </g>
        <g>
          <path d="M89.813,130.282a3.71,3.71,0,0,1-3.218.755,5.261,5.261,0,0,1-2.477-1.147,5.99,5.99,0,0,1-1.664-2.256q-2.032-4.872-4.066-9.736c-7.124-1.231-14.248-2.337-21.371-2.995q-2.034,4.323-4.068,8.7a4.217,4.217,0,0,1-1.7,1.856,4.452,4.452,0,0,1-2.441.589,4.719,4.719,0,0,1-3.291-1.448,4.515,4.515,0,0,1-1.368-3.3,4.089,4.089,0,0,1,.444-1.848c6.31-13.755,12.62-27.011,18.93-39.991a3.631,3.631,0,0,1,1.628-1.712,3.893,3.893,0,0,1,2.44-.4,5.7,5.7,0,0,1,4.289,3.311c6.285,14.772,12.571,29.717,18.856,44.614a5.848,5.848,0,0,1,.37,1.988A3.759,3.759,0,0,1,89.813,130.282ZM67.664,92.442q-3.438,7.2-6.876,14.493c4.609.521,9.218,1.207,13.827,1.968Q71.14,100.638,67.664,92.442Z"/>
          <path d="M127.784,134.854a4.04,4.04,0,0,1-3.106,1.185,4.209,4.209,0,0,1-3.068-1.51,4.721,4.721,0,0,1-1.3-3.223,5,5,0,0,1-1.257,1.576,9.008,9.008,0,0,1-2.144,1.379,11.5,11.5,0,0,1-2.773.879,10.262,10.262,0,0,1-3.143.091,15.373,15.373,0,0,1-6.212-2.163,19.492,19.492,0,0,1-5.028-4.4,20.742,20.742,0,0,1-3.365-5.958,19.517,19.517,0,0,1-1.22-6.79,14.964,14.964,0,0,1,1.331-6.354,13.624,13.624,0,0,1,3.623-4.8,14.417,14.417,0,0,1,5.4-2.8,16.8,16.8,0,0,1,6.581-.476,19.375,19.375,0,0,1,6.581,1.966,19.8,19.8,0,0,1,5.4,3.941,18.062,18.062,0,0,1,3.623,5.49,16.587,16.587,0,0,1,1.331,6.589v12.275A4.194,4.194,0,0,1,127.784,134.854Zm-8.208-19.2a9.057,9.057,0,0,0-1.553-2.966,8.666,8.666,0,0,0-2.515-2.145,8.824,8.824,0,0,0-3.4-1.063,7.7,7.7,0,0,0-3.4.285,6.244,6.244,0,0,0-2.514,1.58,6.829,6.829,0,0,0-1.554,2.623,10.718,10.718,0,0,0-.517,3.4,12.93,12.93,0,0,0,.48,3.546,9.887,9.887,0,0,0,1.443,3.055,8.2,8.2,0,0,0,2.4,2.253,8.063,8.063,0,0,0,3.365,1.12,7.416,7.416,0,0,0,3.438-.334,6.664,6.664,0,0,0,2.588-1.69A7.955,7.955,0,0,0,119.5,122.6a9.754,9.754,0,0,0,.592-3.435A11.783,11.783,0,0,0,119.576,115.653Z"/>
        </g>
      </g>
    </g>
  </g>
</svg>
