<svg xmlns="http://www.w3.org/2000/svg" width="12.302" height="12.501" viewBox="0 0 12.302 12.501">
  <path id="Icon_awesome-flag-checkered" data-name="Icon awesome-flag-checkered" d="M6.3,4.634V6.3c.637.144,1.2.381,1.8.544V5.176C7.467,5.034,6.9,4.8,6.3,4.634Zm5.452-3A7.129,7.129,0,0,1,8.9,2.41c-1.306,0-2.388-.85-4.033-.85a4.747,4.747,0,0,0-1.66.293,1.367,1.367,0,1,0-2.058.632v9.426a.585.585,0,0,0,.586.586h.391a.585.585,0,0,0,.586-.586v-2.3A6.807,6.807,0,0,1,5.5,9.068c1.309,0,2.388.85,4.033.85a5.1,5.1,0,0,0,2.991-1,.779.779,0,0,0,.337-.645V2.339A.78.78,0,0,0,11.756,1.631ZM4.508,7.944a7.691,7.691,0,0,0-1.8.405V6.629a6.984,6.984,0,0,1,1.8-.425ZM11.7,4.661a7.788,7.788,0,0,1-1.8.583V6.98a4.538,4.538,0,0,0,1.8-.635V8.067a3.945,3.945,0,0,1-1.8.662V6.98a4.13,4.13,0,0,1-1.8-.137V8.489a14.244,14.244,0,0,0-1.8-.52V6.3a5.427,5.427,0,0,0-1.8-.093V4.495a8.615,8.615,0,0,0-1.8.51V3.284a6.991,6.991,0,0,1,1.8-.537V4.495a4.153,4.153,0,0,1,1.8.139V2.989a13.9,13.9,0,0,0,1.8.52v1.67a4.651,4.651,0,0,0,1.8.066V3.489a8.638,8.638,0,0,0,1.8-.549Z" transform="translate(-0.563 0.003)" fill="#fff"/>
</svg>
