<?xml version="1.0" encoding="utf-8"?>
<!-- Generator: Adobe Illustrator 25.0.0, SVG Export Plug-In . SVG Version: 6.00 Build 0)  -->
<svg version="1.1" id="Layer_1" xmlns="http://www.w3.org/2000/svg" xmlns:xlink="http://www.w3.org/1999/xlink" x="0px" y="0px"
	 viewBox="0 0 21.3 22.2" style="enable-background:new 0 0 21.3 22.2;" xml:space="preserve">
<style type="text/css">
	.st0{fill:#FFFFFF;}
</style>
<path id="Helmet_User" class="st0" d="M2.9,12.8c0.2,0.5,0.5,1,0.9,1.3C5,15,7.6,16.8,9.3,17.3l3.1,0.9c0.2,0.1,0.4-0.1,0.4-0.3
	c0,0,0-0.1,0-0.1l0,0l2.5,1c0.6,0.2,1.3,0,1.7-0.5c0.5-0.9,0.9-1.9,1.1-2.9c0,0,0,0,0,0c0,0,0-0.1,0-0.1c0.1-2.5-0.4-5.1-1.4-7.4
	c0,0,0-0.1-0.1-0.1v0C15.6,5,13,3.1,10,2.9C4.1,2.4,2.7,7.1,2.7,8.6V12C2.7,12.2,2.8,12.5,2.9,12.8L2.9,12.8z M5.7,10.6
	c0.6,0,1,0.5,1,1c0,0,0,0,0,0c0,0.6-0.5,1-1,1l0,0c-0.6,0-1-0.5-1-1c0,0,0,0,0,0C4.7,11,5.2,10.6,5.7,10.6L5.7,10.6z M17,14.5
	c-1.3,0-2.6-0.5-3.7-1.3c-1.4-1.1-2.5-2.5-3.1-4.2c-0.2-0.6,0.1-1.6,0.7-1.5c0.6,0.1,1.2,0.3,1.6,0.8c1,0.7,2.2,1,3.4,0.9
	c0.1,0,0.3-0.1,0.4-0.1c0.7,1.8,1,3.7,1,5.6C17.3,14.5,17.2,14.5,17,14.5L17,14.5z"/>
</svg>
