<?xml version="1.0" encoding="utf-8"?>
<!-- Generator: Adobe Illustrator 25.0.0, SVG Export Plug-In . SVG Version: 6.00 Build 0)  -->
<svg version="1.1" xmlns="http://www.w3.org/2000/svg" xmlns:xlink="http://www.w3.org/1999/xlink" x="0px" y="0px"
	 viewBox="0 0 800 250" style="enable-background:new 0 0 800 250;" xml:space="preserve">
<style type="text/css">
	.st0{fill:#CDF5F9;}
	.st1{fill:url(#SVGID_1_);}
	.st2{fill:url(#SVGID_2_);}
	.st3{fill:#3B3B3B;}
	.st4{fill:#FFFFFF;}
	.st5{display:none;}
	.st6{display:inline;opacity:0.47;fill:url(#SVGID_3_);enable-background:new    ;}
	.st7{fill:#FFCA76;}
	.st8{fill:#BA1919;}
	.st9{fill:#AA5D09;}
	.st10{fill:#8E4700;}
	.st11{fill:none;stroke:#8E4700;stroke-width:3;stroke-miterlimit:10;}
	.st12{fill:#848484;}
	.st13{fill:#FFCE00;}
	.st14{fill:#77410B;}
	.st15{font-family:'Bryant-BoldAlt';}
	.st16{font-size:14.7656px;}
	.st17{fill-rule:evenodd;clip-rule:evenodd;fill:#90DADD;stroke:#8E4700;stroke-width:3;stroke-miterlimit:10;}
	.st18{fill:#139B1A;}
	.st19{fill-rule:evenodd;clip-rule:evenodd;fill:#848484;}
	.st20{fill-rule:evenodd;clip-rule:evenodd;fill:#BA1919;}
	.st21{fill-rule:evenodd;clip-rule:evenodd;fill:#FFDA00;}
	.st22{fill-rule:evenodd;clip-rule:evenodd;fill:#FFFFFF;}
</style>
<g id="Layer_1">
	<g id="Layer_1_1_">
		<rect class="st0" width="800" height="250"/>
	</g>
	<g id="Layer_7">
		
			<linearGradient id="SVGID_1_" gradientUnits="userSpaceOnUse" x1="694" y1="-111" x2="778" y2="-111" gradientTransform="matrix(1 0 0 -1 0 -56)">
			<stop  offset="0" style="stop-color:#FCEE21"/>
			<stop  offset="1" style="stop-color:#FCEE21"/>
		</linearGradient>
		<circle class="st1" cx="736" cy="55" r="42"/>
		
			<radialGradient id="SVGID_2_" cx="736" cy="-111" r="56" gradientTransform="matrix(1 0 0 -1 0 -56)" gradientUnits="userSpaceOnUse">
			<stop  offset="0" style="stop-color:#FCEE21"/>
			<stop  offset="1" style="stop-color:#FCEE21;stop-opacity:0"/>
		</radialGradient>
		<circle class="st2" cx="736" cy="55" r="56"/>
	</g>
	<g id="Layer_5">
		<rect y="220" class="st3" width="800" height="30"/>
	</g>
	<g>
		<path class="st4" d="M430.8,64c-3-16.5-17.4-28.9-34.7-28.9c-4.8,0-9.4,1-13.6,2.7C375.7,28.2,364.6,22,352,22
			c-12.7,0-23.9,6.3-30.6,16c-4.7-3.3-10.3-5.3-16.5-5.3c-15.7,0-28.5,12.7-28.5,28.5c0,0.9,0,1.9,0.1,2.8H430.8z"/>
	</g>
	<g>
		<path class="st4" d="M162.4,112c2.2-12.1,12.8-21.4,25.6-21.4c3.6,0,7,0.7,10,2c5-7.1,13.2-11.7,22.5-11.7
			c9.4,0,17.6,4.7,22.6,11.8c3.4-2.4,7.6-3.9,12.2-3.9c11.6,0,21,9.4,21,21c0,0.7,0,1.4-0.1,2.1L162.4,112L162.4,112z"/>
	</g>
	<g>
		<path class="st4" d="M92.3,62.7c-6.2,0-11.8,2-16.5,5.3c-6.7-9.7-17.9-16-30.6-16c-12.6,0-23.7,6.2-30.5,15.8
			c-4.2-1.8-8.8-2.7-13.6-2.7c-0.4,0-0.7,0-1.1,0V94h120.6c0.1-0.9,0.1-1.9,0.1-2.8C120.8,75.5,108,62.7,92.3,62.7z"/>
	</g>
	<g id="Layer_6">
	</g>
	<g id="Layer_8" class="st5">
		
			<linearGradient id="SVGID_3_" gradientUnits="userSpaceOnUse" x1="400" y1="-56" x2="400" y2="-306" gradientTransform="matrix(1 0 0 -1 0 -56)">
			<stop  offset="0" style="stop-color:#666666"/>
			<stop  offset="1" style="stop-color:#333333"/>
		</linearGradient>
		<rect class="st6" width="800" height="250"/>
	</g>
</g>
<g id="Layer_2">
	<g>
		<polygon class="st7" points="655.1,165.7 655.1,124.7 550.9,124.7 550.9,165.7 487.8,165.7 487.8,228.9 550.9,228.9 655.1,228.9 
			718.3,228.9 718.3,165.7 		"/>
		<g id="Layer_6_1_">
		</g>
		<path class="st8" d="M655,130.6H551c-2.5,0-4.6-2.1-4.6-4.6l0,0c0-2.5,2.1-4.6,4.6-4.6h103.9c2.5,0,4.6,2.1,4.6,4.6l0,0
			C659.6,128.6,657.6,130.6,655,130.6z"/>
		<path class="st8" d="M552.2,170.3h-65.7c-2.5,0-4.6-2.1-4.6-4.6l0,0c0-2.5,2.1-4.6,4.6-4.6h65.7c2.5,0,4.6,2.1,4.6,4.6l0,0
			C556.8,168.3,554.7,170.3,552.2,170.3z"/>
		<path class="st8" d="M719.5,170.3h-65.7c-2.5,0-4.6-2.1-4.6-4.6l0,0c0-2.5,2.1-4.6,4.6-4.6h65.7c2.5,0,4.6,2.1,4.6,4.6l0,0
			C724.1,168.3,722,170.3,719.5,170.3z"/>
		<g>
			<path class="st9" d="M587.2,230.1c-2.9,0-5.2-2.4-5.2-5.2v-35.6c0-2.9,2.4-5.2,5.2-5.2h31.6c2.9,0,5.2,2.4,5.2,5.2v35.6
				c0,2.9-2.4,5.2-5.2,5.2H587.2z"/>
			<path class="st10" d="M618.9,185.2c2.2,0,4,1.8,4,4v35.6c0,2.2-1.8,4-4,4h-31.6c-2.2,0-4-1.8-4-4v-35.6c0-2.2,1.8-4,4-4
				L618.9,185.2 M618.9,182.8h-31.6c-3.6,0-6.5,2.9-6.5,6.5v35.6c0,3.6,2.9,6.5,6.5,6.5h31.6c3.6,0,6.5-2.9,6.5-6.5v-35.6
				C625.3,185.7,622.4,182.8,618.9,182.8L618.9,182.8z"/>
		</g>
		<g>
			<line class="st11" x1="603" y1="185.2" x2="603" y2="227.4"/>
		</g>
		<polygon class="st12" points="627.3,232.9 578.7,232.9 580.4,224.9 625.7,224.9 		"/>
		<rect x="598.3" y="205.4" class="st13" width="1" height="6.2"/>
		<rect x="606.7" y="205.4" class="st13" width="1" height="6.2"/>
		<path class="st14" d="M637.2,162.5h-68.3c-2.8,0-5.1-2.3-5.1-5.1V143c0-2.8,2.3-5.1,5.1-5.1h68.3c2.8,0,5.1,2.3,5.1,5.1v14.4
			C642.3,160.2,640,162.5,637.2,162.5z"/>
		<path class="st9" d="M637.2,160h-68.3c-2.8,0-5.1-2.3-5.1-5.1v-14.4c0-2.8,2.3-5.1,5.1-5.1h68.3c2.8,0,5.1,2.3,5.1,5.1v14.4
			C642.3,157.7,640,160,637.2,160z"/>
		<g>
			<text transform="matrix(1 0 0 1 571.5352 152.1016)" class="st4 st15 st16">SCHOOL</text>
		</g>
		<g>
			<path class="st17" d="M563.7,216.6h-60c-2.1,0-3.9-1.7-3.9-3.9v-25.4c0-2.1,1.7-3.9,3.9-3.9h60c2.1,0,3.9,1.7,3.9,3.9v25.4
				C567.6,214.9,565.9,216.6,563.7,216.6z"/>
			<line class="st11" x1="533.7" y1="183.3" x2="533.7" y2="216.6"/>
			<path class="st18" d="M548.2,207.7c-2.4,0-4.4,1.6-5.2,3.7c-0.9-1.3-2.5-2.2-4.3-2.2c-1.3,0-2.5,0.5-3.4,1.3
				c-1.1-2.5-3.5-4.1-6.4-4.1c-3.1,0-5.7,2.1-6.6,4.9c-0.9-1.2-2.5-2.1-4.1-2.1c-2.9,0-5.2,2.3-5.2,5.2s2.3,5.2,5.2,5.2
				c2.1,0,3.8-1.1,4.6-2.9c1.1,2.2,3.5,3.7,6.2,3.7c2.3,0,4.3-1.1,5.7-2.9c0.9,1.2,2.5,2.1,4.1,2.1c2.1,0,4-1.3,4.8-3.2
				c1,1.6,2.7,2.5,4.7,2.5c3.1,0,5.6-2.5,5.6-5.6C553.8,210.3,551.3,207.7,548.2,207.7z"/>
			<polygon class="st8" points="509.4,212.9 558,212.9 556.3,220.8 511.1,220.8 			"/>
			<line class="st11" x1="499.8" y1="199.9" x2="567.6" y2="199.9"/>
		</g>
		<g>
			<path class="st17" d="M702.4,216.6h-60c-2.1,0-3.9-1.7-3.9-3.9v-25.4c0-2.1,1.7-3.9,3.9-3.9h60c2.1,0,3.9,1.7,3.9,3.9v25.4
				C706.2,214.9,704.5,216.6,702.4,216.6z"/>
			<line class="st11" x1="672.3" y1="183.3" x2="672.3" y2="216.6"/>
			<path class="st18" d="M686.9,207.7c-2.4,0-4.4,1.6-5.2,3.7c-0.9-1.3-2.5-2.2-4.3-2.2c-1.3,0-2.5,0.5-3.4,1.3
				c-1.1-2.5-3.5-4.1-6.4-4.1c-3.1,0-5.7,2.1-6.6,4.9c-0.9-1.2-2.5-2.1-4.1-2.1c-2.9,0-5.2,2.3-5.2,5.2s2.3,5.2,5.2,5.2
				c2.1,0,3.8-1.1,4.6-2.9c1.1,2.2,3.5,3.7,6.2,3.7c2.3,0,4.3-1.1,5.7-2.9c0.9,1.2,2.5,2.1,4.1,2.1c2.1,0,4-1.3,4.8-3.2
				c1,1.6,2.7,2.5,4.7,2.5c3.1,0,5.6-2.5,5.6-5.6C692.4,210.3,690,207.7,686.9,207.7z"/>
			<polygon class="st8" points="648.1,212.9 696.6,212.9 695,220.8 649.7,220.8 			"/>
			<line class="st11" x1="638.5" y1="199.9" x2="706.2" y2="199.9"/>
		</g>
		<rect x="601.8" y="82.9" class="st19" width="2.5" height="38.6"/>
		<g>
			<path class="st20" d="M635.7,104.1c-10.5-6.8-20.9,6.8-31.4,0c0-7.1,0-14.2,0-21.2c10.5,6.8,20.9-6.8,31.4,0
				C635.7,90,635.7,97.1,635.7,104.1z"/>
		</g>
		<circle class="st21" cx="663.8" cy="208.3" r="1.3"/>
		<circle class="st21" cx="689.6" cy="208.9" r="1.3"/>
		<circle class="st21" cx="672.7" cy="210.7" r="1.3"/>
		<circle class="st22" cx="678.7" cy="210.3" r="1.3"/>
		<circle class="st22" cx="655.6" cy="210.3" r="1.3"/>
		<circle class="st21" cx="548.5" cy="208.9" r="1.3"/>
		<circle class="st21" cx="531" cy="207.6" r="1.3"/>
		<circle class="st21" cx="517.5" cy="210" r="1.3"/>
		<circle class="st22" cx="540.3" cy="210" r="1.3"/>
		<circle class="st22" cx="524.3" cy="209.2" r="1.3"/>
	</g>
</g>
</svg>
