<svg id="Layer_8" data-name="Layer 8" xmlns="http://www.w3.org/2000/svg" xmlns:xlink="http://www.w3.org/1999/xlink" viewBox="0 0 1401 1173.12"><defs><style>.cls-1,.cls-4{fill:none;}.cls-2{clip-path:url(#clip-path);}.cls-3{fill:#5b5b5b;}.cls-4{stroke:#b7b7b7;stroke-miterlimit:10;stroke-width:2.04px;}.cls-5{fill:#b7b7b7;}.cls-6{clip-path:url(#clip-path-2);}.cls-7{fill:#777;}.cls-8{fill:#9e9e9e;}.cls-9{fill:#002baf;}.cls-10{fill:#2ab4eb;}.cls-11{fill:#fff;}.cls-12{fill:#bfbb1f;}.cls-13{fill:#e27a0a;}.cls-14{fill:#e5c507;}.cls-15{fill:#2371e2;}.cls-16{clip-path:url(#clip-path-3);}</style><clipPath id="clip-path"><rect class="cls-1" x="51.94" y="490.86" width="256.71" height="645.45" rx="56.11" ry="56.11"/></clipPath><clipPath id="clip-path-2"><rect class="cls-1" x="1061.85" y="490.86" width="256.71" height="645.45" rx="56.11" ry="56.11"/></clipPath><clipPath id="clip-path-3"><rect class="cls-1" x="549.67" y="415.78" width="303.37" height="194.04"/></clipPath></defs><title>Artboard 11</title><g id="hotrod"><g class="cls-2"><rect class="cls-3" x="51.94" y="490.86" width="256.71" height="645.45" rx="42.38" ry="42.38"/><line class="cls-4" x1="128.95" y1="539.76" x2="72.72" y2="501.86"/><line class="cls-4" x1="128.95" y1="584.89" x2="72.82" y2="545.68"/><line class="cls-4" x1="128.95" y1="630.03" x2="72.91" y2="589.5"/><line class="cls-4" x1="128.95" y1="675.17" x2="73" y2="633.32"/><line class="cls-4" x1="128.95" y1="720.3" x2="73.1" y2="677.14"/><line class="cls-4" x1="128.95" y1="765.44" x2="73.19" y2="720.96"/><line class="cls-4" x1="128.95" y1="810.58" x2="73.29" y2="764.78"/><line class="cls-4" x1="128.95" y1="855.71" x2="73.38" y2="808.6"/><line class="cls-4" x1="128.95" y1="900.85" x2="73.47" y2="852.42"/><line class="cls-4" x1="128.95" y1="945.98" x2="73.57" y2="896.24"/><line class="cls-4" x1="128.95" y1="991.12" x2="73.66" y2="940.06"/><line class="cls-4" x1="128.95" y1="1036.26" x2="73.76" y2="983.88"/><line class="cls-4" x1="128.95" y1="1081.39" x2="73.85" y2="1027.7"/><line class="cls-4" x1="128.95" y1="1126.53" x2="73.94" y2="1071.52"/><rect class="cls-5" x="176.14" y="490.86" width="6.98" height="646.67"/><rect class="cls-5" x="69.05" y="489.64" width="7.32" height="646.67"/><line class="cls-4" x1="232.86" y1="539.76" x2="289.09" y2="501.86"/><line class="cls-4" x1="232.86" y1="584.89" x2="289" y2="545.68"/><line class="cls-4" x1="232.86" y1="630.03" x2="288.9" y2="589.5"/><line class="cls-4" x1="232.86" y1="675.17" x2="288.81" y2="633.32"/><line class="cls-4" x1="232.86" y1="720.3" x2="288.72" y2="677.14"/><line class="cls-4" x1="232.86" y1="765.44" x2="288.62" y2="720.96"/><line class="cls-4" x1="232.86" y1="810.58" x2="288.53" y2="764.78"/><line class="cls-4" x1="232.86" y1="855.71" x2="288.43" y2="808.6"/><line class="cls-4" x1="232.86" y1="900.85" x2="288.34" y2="852.42"/><line class="cls-4" x1="232.86" y1="945.98" x2="288.25" y2="896.24"/><line class="cls-4" x1="232.86" y1="991.12" x2="288.15" y2="940.06"/><line class="cls-4" x1="232.86" y1="1036.26" x2="288.06" y2="983.88"/><line class="cls-4" x1="232.86" y1="1081.39" x2="287.96" y2="1027.7"/><line class="cls-4" x1="232.86" y1="1126.53" x2="287.87" y2="1071.52"/><polyline class="cls-5" points="286.09 1136.31 292.76 1136.31 292.76 489.64 286.09 489.64"/></g><g class="cls-6"><rect class="cls-3" x="1061.85" y="490.86" width="256.71" height="645.45" rx="42.38" ry="42.38"/><line class="cls-4" x1="1138.86" y1="539.76" x2="1082.63" y2="501.86"/><line class="cls-4" x1="1138.86" y1="584.89" x2="1082.72" y2="545.68"/><line class="cls-4" x1="1138.86" y1="630.03" x2="1082.82" y2="589.5"/><line class="cls-4" x1="1138.86" y1="675.17" x2="1082.91" y2="633.32"/><line class="cls-4" x1="1138.86" y1="720.3" x2="1083.01" y2="677.14"/><line class="cls-4" x1="1138.86" y1="765.44" x2="1083.1" y2="720.96"/><line class="cls-4" x1="1138.86" y1="810.58" x2="1083.19" y2="764.78"/><line class="cls-4" x1="1138.86" y1="855.71" x2="1083.29" y2="808.6"/><line class="cls-4" x1="1138.86" y1="900.85" x2="1083.38" y2="852.42"/><line class="cls-4" x1="1138.86" y1="945.98" x2="1083.48" y2="896.24"/><line class="cls-4" x1="1138.86" y1="991.12" x2="1083.57" y2="940.06"/><line class="cls-4" x1="1138.86" y1="1036.26" x2="1083.66" y2="983.88"/><line class="cls-4" x1="1138.86" y1="1081.39" x2="1083.76" y2="1027.7"/><line class="cls-4" x1="1138.86" y1="1126.53" x2="1083.85" y2="1071.52"/><rect class="cls-5" x="1186.05" y="490.86" width="6.98" height="646.67"/><rect class="cls-5" x="1078.96" y="489.64" width="7.32" height="646.67"/><line class="cls-4" x1="1242.77" y1="539.76" x2="1299" y2="501.86"/><line class="cls-4" x1="1242.77" y1="584.89" x2="1298.91" y2="545.68"/><line class="cls-4" x1="1242.77" y1="630.03" x2="1298.81" y2="589.5"/><line class="cls-4" x1="1242.77" y1="675.17" x2="1298.72" y2="633.32"/><line class="cls-4" x1="1242.77" y1="720.3" x2="1298.63" y2="677.14"/><line class="cls-4" x1="1242.77" y1="765.44" x2="1298.53" y2="720.96"/><line class="cls-4" x1="1242.77" y1="810.58" x2="1298.44" y2="764.78"/><line class="cls-4" x1="1242.77" y1="855.71" x2="1298.34" y2="808.6"/><line class="cls-4" x1="1242.77" y1="900.85" x2="1298.25" y2="852.42"/><line class="cls-4" x1="1242.77" y1="945.98" x2="1298.15" y2="896.24"/><line class="cls-4" x1="1242.77" y1="991.12" x2="1298.06" y2="940.06"/><line class="cls-4" x1="1242.77" y1="1036.26" x2="1297.97" y2="983.88"/><line class="cls-4" x1="1242.77" y1="1081.39" x2="1297.87" y2="1027.7"/><line class="cls-4" x1="1242.77" y1="1126.53" x2="1297.78" y2="1071.52"/><polyline class="cls-5" points="1296 1136.31 1302.67 1136.31 1302.67 489.64 1296 489.64"/></g><path class="cls-5" d="M824.19,938.59c52.78,0,37.32-68.45,59.71-116.36,13.08-28,67.17-123.2,171.66-150.58,25.78-6.75,31-34.6,44.78-47.91,20.45-19.81,22.4-54.76,22.4-54.76L936.14,411.55l-37.31,27.38s-7.47,0,0-34.22,0-75.29,0-109.52-59.71-75.29-59.71-75.29L824.19,62.48H577.89L563,219.9s-59.7,41.07-59.7,75.29-7.47,75.3,0,109.52,0,34.22,0,34.22l-37.32-27.38L279.35,569s1.95,34.95,22.39,54.76c13.74,13.31,19,41.16,44.78,47.91C451,699,505.1,794.23,518.18,822.23c22.39,47.91,7.47,109.52,59.71,116.36Z"/><path class="cls-7" d="M86.38,262.47s33.68-40.42,53.88,0S275,538.64,275,538.64s33.68,53.88,74.1,26.94l33.68,26.94s-53.89,47.16-114.51,0S106.58,249,86.38,262.47Z"/><path class="cls-5" d="M3.19,259.4s37.32-44.78,59.71,0,149.27,306,149.27,306,37.32,59.71,82.1,29.85l37.32,29.86s-59.71,52.24-126.88,0S25.58,244.47,3.19,259.4Z"/><path class="cls-7" d="M1314.62,262.47s-33.68-40.42-53.88,0S1126,538.64,1126,538.64s-33.68,53.88-74.1,26.94l-33.68,26.94s53.89,47.16,114.51,0S1294.42,249,1314.62,262.47Z"/><path class="cls-5" d="M1397.81,259.4s-37.32-44.78-59.71,0-149.27,306-149.27,306-37.32,59.71-82.1,29.85l-37.32,29.86s59.71,52.24,126.88,0S1375.42,244.47,1397.81,259.4Z"/><rect class="cls-8" x="486.46" y="36.81" width="432.89" height="136.89" rx="66.01" ry="66.01"/><ellipse class="cls-3" cx="576.03" cy="105.26" rx="48.51" ry="44.49"/><ellipse class="cls-3" cx="702.91" cy="105.26" rx="48.51" ry="44.49"/><ellipse class="cls-3" cx="829.79" cy="105.26" rx="48.51" ry="44.49"/><path class="cls-5" d="M527.51,105.26c0-24.58,21.72-44.49,48.52-44.49s48.51,19.91,48.51,44.49"/><path class="cls-5" d="M654.39,105.26c0-24.58,21.72-44.49,48.52-44.49s48.51,19.91,48.51,44.49"/><path class="cls-5" d="M781.27,105.26c0-24.58,21.73-44.49,48.52-44.49s48.51,19.91,48.51,44.49"/><path class="cls-3" d="M256.91,1113.91c-44.94,0-78.7-13.09-100.32-38.9-45.74-54.6-20.1-145.79-19-149.64l63.7-215.69c8.17-41.13,41.34-59.74,69.6-68.16l11.84-57.31c12.12-87.86,93.81-88.86,97.29-88.86h626.75c3.56,0,85.26,1,97.39,88.86L1116,641.52c28.25,8.42,61.42,27,69.6,68.16l63.68,215.65c1.13,3.89,26.77,95.08-19,149.68-21.63,25.81-55.38,38.9-100.33,38.9Z"/><path id="main_body" data-name="main body" class="cls-9" d="M1241.6,927.24l-63.78-216c-7.75-39.74-41.18-56.76-68.75-64.06l-12.78-61.88c-11.39-83.51-89.51-82.68-89.51-82.68H380.12s-78.11-.83-89.5,82.68l-12.79,61.88c-27.57,7.3-61,24.32-68.75,64.06l-63.77,216s-51.82,179.35,111.6,179.35H1130C1293.41,1106.59,1241.6,927.24,1241.6,927.24Z"/><rect class="cls-3" x="288.71" y="380.87" width="809.48" height="120.99" rx="52.5" ry="52.5"/><rect class="cls-5" x="296.8" y="385.29" width="793.29" height="110.2" rx="49.6" ry="49.6"/><rect class="cls-3" x="306.43" y="390.8" width="774.05" height="98.32" rx="46.28" ry="46.28"/><path class="cls-5" d="M1080.47,441.61v13c0,19.52-23.19,35.49-51.53,35.49H358c-28.35,0-51.54-16-51.54-35.49v-13"/><path id="second_body" data-name="second body" class="cls-10" d="M1207.65,896.24,1147.82,707c-7.27-34.83-38.63-49.75-64.49-56.14l-12-54.23c-10.69-73.19-84-72.46-84-72.46H399.53s-73.28-.73-84,72.46l-12,54.23c-25.86,6.39-57.22,21.31-64.49,56.14L179.25,896.24s-48.6,157.17,104.7,157.17h819C1256.26,1053.41,1207.65,896.24,1207.65,896.24Z"/><path id="second_body-2" data-name="second body" class="cls-10" d="M1183.5,868.56l-56.91-184.5c-6.92-34-36.75-48.51-61.36-54.74l-11.4-52.87C1043.66,505.1,974,505.81,974,505.81H414.72s-69.71-.71-79.87,70.64l-11.41,52.87c-24.6,6.23-54.44,20.78-61.35,54.74l-56.92,184.5s-46.24,153.23,99.6,153.23H1083.9C1229.74,1021.79,1183.5,868.56,1183.5,868.56Z"/><path class="cls-3" d="M431.4,720.17,443.9,323.4c1.62-51.43,41.69-93.12,89.49-93.12H852.88c47.8,0,87.91,41.69,89.59,93.12L955.4,720.17c1.68,51.43-38.65,93.12-90.09,93.12H521.59A89.67,89.67,0,0,1,431.4,720.17Z"/><path class="cls-11" d="M442.36,712.89l11-255.62c1.82-42.17,35.08-76.36,74.28-76.36H858.62c39.2,0,72.5,34.19,74.39,76.36l11.42,255.62c1.88,42.17-30.78,76.36-72.95,76.36H515.43C473.25,789.25,440.54,755.06,442.36,712.89Z"/><path class="cls-11" d="M1120.48,789.49l-48.59-142.11c-5.21-22.38-23.65-38.33-53.49-46.36l-8.66-36.21c-9.66-60-74.19-60.71-77-60.71H454.1c-2.75,0-67.27.7-76.93,60.71L368.51,601c-29.85,8-48.29,24-53.49,46.36L266.41,789.53c-.84,2.51-20.19,62,13.24,99.23,16.94,18.89,44,28.47,80.42,28.47h666.76c36.43,0,63.49-9.58,80.43-28.47C1140.69,851.48,1121.33,792,1120.48,789.49ZM974.32,609.8H421v-37c7.83-49.57,61.52-49.08,61.52-49.08H913.19s53.69-.49,61.52,49.08Z"/><path class="cls-3" d="M1112.06,791.54l-48.7-142.43c-5.92-26.22-31.45-37.45-52.51-42.26L1001.09,566c-8.7-55.09-68.35-54.54-68.35-54.54H454.17S394.52,511,385.82,566l-9.77,40.81c-21.05,4.81-46.58,16-52.5,42.26L274.84,791.54s-39.57,118.3,85.24,118.3h666.75C1151.63,909.84,1112.06,791.54,1112.06,791.54ZM974.32,609.8H421v-37c7.83-49.57,61.52-49.08,61.52-49.08H913.19s53.69-.49,61.52,49.08Z"/><ellipse class="cls-12" cx="423.86" cy="694.84" rx="78.25" ry="46.39"/><path class="cls-13" d="M423.86,748c-47.7,0-85.06-23.36-85.06-53.19s37.36-53.19,85.06-53.19,85.06,23.36,85.06,53.19S471.56,748,423.86,748Z"/><ellipse class="cls-13" cx="423.86" cy="694.84" rx="78.25" ry="46.39"/><path class="cls-13" d="M423.86,734.42C380,734.42,345.61,714,345.61,688s34.37-46.38,78.25-46.38S502.11,662,502.11,688,467.74,734.42,423.86,734.42Z"/><ellipse class="cls-14" cx="423.86" cy="684.63" rx="71.45" ry="39.58"/><ellipse class="cls-12" cx="606.21" cy="694.84" rx="78.25" ry="46.39"/><path class="cls-13" d="M606.21,748c-47.69,0-85.05-23.36-85.05-53.19s37.36-53.19,85.05-53.19,85.06,23.36,85.06,53.19S653.91,748,606.21,748Z"/><ellipse class="cls-13" cx="606.21" cy="694.84" rx="78.25" ry="46.39"/><path class="cls-13" d="M606.21,734.42C562.33,734.42,528,714,528,688s34.37-46.38,78.25-46.38S684.47,662,684.47,688,650.09,734.42,606.21,734.42Z"/><ellipse class="cls-14" cx="606.21" cy="684.63" rx="71.45" ry="39.58"/><ellipse class="cls-12" cx="788.57" cy="694.84" rx="78.25" ry="46.39"/><path class="cls-13" d="M788.57,748c-47.7,0-85.06-23.36-85.06-53.19s37.36-53.19,85.06-53.19,85.06,23.36,85.06,53.19S836.26,748,788.57,748Z"/><ellipse class="cls-13" cx="788.57" cy="694.84" rx="78.25" ry="46.39"/><path class="cls-13" d="M788.57,734.42c-43.88,0-78.25-20.38-78.25-46.39s34.37-46.38,78.25-46.38S866.82,662,866.82,688,832.45,734.42,788.57,734.42Z"/><ellipse class="cls-14" cx="788.57" cy="684.63" rx="71.45" ry="39.58"/><ellipse class="cls-12" cx="970.92" cy="694.84" rx="78.25" ry="46.39"/><path class="cls-13" d="M970.92,748c-47.69,0-85.06-23.36-85.06-53.19s37.37-53.19,85.06-53.19S1056,665,1056,694.84,1018.62,748,970.92,748Z"/><ellipse class="cls-13" cx="970.92" cy="694.84" rx="78.25" ry="46.39"/><path class="cls-13" d="M970.92,734.42C927,734.42,892.67,714,892.67,688s34.37-46.38,78.25-46.38S1049.18,662,1049.18,688,1014.8,734.42,970.92,734.42Z"/><ellipse class="cls-14" cx="970.92" cy="684.63" rx="71.45" ry="39.58"/><ellipse class="cls-12" cx="511.1" cy="761.24" rx="78.25" ry="46.39"/><path class="cls-13" d="M511.1,814.43c-47.7,0-85.06-23.36-85.06-53.19s37.36-53.19,85.06-53.19,85.06,23.36,85.06,53.19S558.79,814.43,511.1,814.43Z"/><ellipse class="cls-13" cx="511.1" cy="761.24" rx="78.25" ry="46.39"/><path class="cls-13" d="M511.1,800.82c-43.88,0-78.26-20.37-78.26-46.38s34.38-46.39,78.26-46.39,78.25,20.38,78.25,46.39S555,800.82,511.1,800.82Z"/><ellipse class="cls-14" cx="511.1" cy="751.03" rx="71.45" ry="39.58"/><ellipse class="cls-12" cx="693.45" cy="761.24" rx="78.25" ry="46.39"/><path class="cls-13" d="M693.45,814.43c-47.69,0-85.06-23.36-85.06-53.19s37.37-53.19,85.06-53.19,85.06,23.36,85.06,53.19S741.15,814.43,693.45,814.43Z"/><ellipse class="cls-13" cx="693.45" cy="761.24" rx="78.25" ry="46.39"/><path class="cls-13" d="M693.45,800.82c-43.88,0-78.25-20.37-78.25-46.38s34.37-46.39,78.25-46.39,78.26,20.38,78.26,46.39S737.33,800.82,693.45,800.82Z"/><ellipse class="cls-14" cx="693.45" cy="751.03" rx="71.45" ry="39.58"/><ellipse class="cls-12" cx="875.81" cy="761.24" rx="78.25" ry="46.39"/><path class="cls-13" d="M875.81,814.43c-47.7,0-85.06-23.36-85.06-53.19s37.36-53.19,85.06-53.19,85.05,23.36,85.05,53.19S923.5,814.43,875.81,814.43Z"/><ellipse class="cls-13" cx="875.81" cy="761.24" rx="78.25" ry="46.39"/><path class="cls-13" d="M875.81,800.82c-43.88,0-78.26-20.37-78.26-46.38s34.38-46.39,78.26-46.39,78.25,20.38,78.25,46.39S919.69,800.82,875.81,800.82Z"/><ellipse class="cls-14" cx="875.81" cy="751.03" rx="71.45" ry="39.58"/><ellipse class="cls-12" cx="415.98" cy="833.27" rx="78.25" ry="46.39"/><path class="cls-13" d="M416,886.46c-47.69,0-85.06-23.36-85.06-53.19s37.37-53.19,85.06-53.19S501,803.45,501,833.27,463.68,886.46,416,886.46Z"/><ellipse class="cls-13" cx="415.98" cy="833.27" rx="78.25" ry="46.39"/><path class="cls-13" d="M416,872.86c-43.88,0-78.25-20.38-78.25-46.39S372.1,780.08,416,780.08s78.25,20.38,78.25,46.39S459.86,872.86,416,872.86Z"/><ellipse class="cls-14" cx="415.98" cy="823.07" rx="71.45" ry="39.58"/><ellipse class="cls-12" cx="598.34" cy="833.27" rx="78.25" ry="46.39"/><path class="cls-13" d="M598.34,886.46c-47.7,0-85.06-23.36-85.06-53.19s37.36-53.19,85.06-53.19,85,23.37,85,53.19S646,886.46,598.34,886.46Z"/><ellipse class="cls-13" cx="598.34" cy="833.27" rx="78.25" ry="46.39"/><path class="cls-13" d="M598.34,872.86c-43.88,0-78.26-20.38-78.26-46.39s34.38-46.39,78.26-46.39,78.25,20.38,78.25,46.39S642.22,872.86,598.34,872.86Z"/><ellipse class="cls-14" cx="598.34" cy="823.07" rx="71.45" ry="39.58"/><ellipse class="cls-12" cx="780.69" cy="833.27" rx="78.25" ry="46.39"/><path class="cls-13" d="M780.69,886.46c-47.7,0-85.06-23.36-85.06-53.19s37.36-53.19,85.06-53.19,85.06,23.37,85.06,53.19S828.39,886.46,780.69,886.46Z"/><ellipse class="cls-13" cx="780.69" cy="833.27" rx="78.25" ry="46.39"/><path class="cls-13" d="M780.69,872.86c-43.88,0-78.25-20.38-78.25-46.39s34.37-46.39,78.25-46.39,78.25,20.38,78.25,46.39S824.57,872.86,780.69,872.86Z"/><ellipse class="cls-14" cx="780.69" cy="823.07" rx="71.45" ry="39.58"/><ellipse class="cls-12" cx="963.04" cy="833.27" rx="78.25" ry="46.39"/><path class="cls-13" d="M963,886.46c-47.69,0-85-23.36-85-53.19s37.36-53.19,85-53.19,85.06,23.37,85.06,53.19S1010.74,886.46,963,886.46Z"/><ellipse class="cls-13" cx="963.04" cy="833.27" rx="78.25" ry="46.39"/><path class="cls-13" d="M963,872.86c-43.88,0-78.25-20.38-78.25-46.39s34.37-46.39,78.25-46.39,78.26,20.38,78.26,46.39S1006.92,872.86,963,872.86Z"/><ellipse class="cls-14" cx="963.04" cy="823.07" rx="71.45" ry="39.58"/><path class="cls-15" d="M1231.09,975.71s-6.07,83.86-74.49,94H230.3c-68.42-10.09-74.49-94-74.49-94,0,.49-20.69,114.83,75.1,114.51H1156C1251.79,1090.54,1231.11,976.2,1231.09,975.71Z"/><path class="cls-11" d="M1171.54,892.78s-5.4,80.38-66.24,90.06H281.6c-60.84-9.68-66.23-90.06-66.23-90.06,0,.47-18.41,110.07,66.78,109.76h822.61C1189.94,1002.85,1171.55,893.25,1171.54,892.78Z"/><g class="cls-16"><path class="cls-3" d="M700.14,493.38A152.9,152.9,0,1,0,853,646.28,152.91,152.91,0,0,0,700.14,493.38Zm0,259.93a107,107,0,1,1,107-107A107,107,0,0,1,700.14,753.31Z"/><path class="cls-5" d="M700.14,506.25A137.61,137.61,0,1,0,837.75,643.86,137.61,137.61,0,0,0,700.14,506.25Zm0,233.93a96.33,96.33,0,1,1,96.33-96.32A96.31,96.31,0,0,1,700.14,740.18Z"/><path class="cls-5" d="M700.14,520A123.85,123.85,0,1,0,824,643.86,123.84,123.84,0,0,0,700.14,520Zm0,210.54a86.7,86.7,0,1,1,86.7-86.69A86.69,86.69,0,0,1,700.14,730.55Z"/><polygon class="cls-3" points="700.14 566.38 665.34 626.67 734.95 626.67 700.14 566.38"/><polygon class="cls-5" points="700.14 585.8 665.34 646.09 734.95 646.09 700.14 585.8"/></g></g></svg>