<svg id="Layer_1" data-name="Layer 1" xmlns="http://www.w3.org/2000/svg" viewBox="0 0 616.65 478.53"><defs><style>.cls-1{fill:#ffd28a;}.cls-2{fill:#9acfed;}.cls-3{fill:#c9a073;}.cls-4{fill:#7ec172;}.cls-5{fill:#f0c087;}.cls-6{fill:#fff;}.cls-7{fill:#ff507d;}.cls-8{fill:#1c1c1c;}.cls-9{fill:#684f35;}</style></defs><title>user-group</title><circle class="cls-1" cx="127.2" cy="184.23" r="76"/><path class="cls-2" d="M268,447.5V361.9s0-84-76-84H90.8c-76,0-76,84-76,84v85.6s29.26,24,123,24S268,447.5,268,447.5Z" transform="translate(-14.8 -10.47)"/><circle class="cls-3" cx="490.65" cy="184.23" r="76"/><path class="cls-4" d="M631.45,447.5V361.9s0-84-76-84H454.25c-76,0-76,84-76,84v85.6s29.26,24,123,24S631.45,447.5,631.45,447.5Z" transform="translate(-14.8 -10.47)"/><circle class="cls-5" cx="309.08" cy="132.53" r="95"/><path class="cls-6" d="M481.83,459V352s0-105-95-105H260.33c-95,0-95,105-95,105V459s36.58,30,153.79,30S481.83,459,481.83,459Z" transform="translate(-14.8 -10.47)"/><path class="cls-7" d="M386.83,247H356.08l-32.5,56.5L291.08,247H260.33c-95,0-95,105-95,105V459s36.58,30,153.79,30,162.71-30,162.71-30V352S481.83,247,386.83,247Z" transform="translate(-14.8 -10.47)"/><path class="cls-3" d="M230.79,130.67s17-43.3,40.58-43.3S321.6,58.23,407.87,98.6c0,0,11-75.6-7.87-86.6C385.2,3.37,228.88,31.49,228.88,91.24S230.79,130.67,230.79,130.67Z" transform="translate(-14.8 -10.47)"/><path class="cls-8" d="M239,238s-5.85-124.4-95.84-130.32l-.12-.24c-1.12,0-2.21,0-3.3.07s-2.19-.07-3.3-.07l-.12.24C46.33,113.6,40.47,238,40.47,238l46,23s-16.32-33-16.32-74.32,46.32-46.33,46.32-46.33H163s46.33,5,46.33,46.33S193,261,193,261Z" transform="translate(-14.8 -10.47)"/><path class="cls-9" d="M431,201.12s14.09-37.32,33.73-37.32,41.75-25.1,113.46,9.68c0,0,6.46-38-9.23-47.48-12.3-7.43-123-35-139.55,17C413.83,192.06,431,201.12,431,201.12Z" transform="translate(-14.8 -10.47)"/></svg>